<?xml version="1.0" standalone="no"?>
<!DOCTYPE svg PUBLIC "-//W3C//DTD SVG 1.1//EN" "http://www.w3.org/Graphics/SVG/1.1/DTD/svg11.dtd" >
<svg>
<metadata>
Created by FontForge 20110222 at Mon Mar  7 11:06:35 2011
 By www-data
(c)2002 Nght - NghtMvs101@aol.com
</metadata>
<defs>
<font id="101BlockLetterZ" horiz-adv-x="473" >
  <font-face 
    font-family="101! Block LetterZ"
    font-weight="400"
    font-stretch="normal"
    units-per-em="1000"
    panose-1="2 0 5 3 0 0 0 0 0 0"
    ascent="800"
    descent="-200"
    x-height="800"
    cap-height="801"
    bbox="0 -203 1303 810"
    underline-thickness="20"
    underline-position="-143"
    unicode-range="U+0020-007A"
  />
    <missing-glyph />
    <glyph glyph-name="space" unicode=" " horiz-adv-x="500" 
 />
    <glyph glyph-name="exclam" unicode="!" horiz-adv-x="477" 
d="M413 -51c0 -83 -68 -148 -155 -148c-91 0 -258 174 -258 267c0 51 24 92 72 125c-9 19 -27 41 -54 67l2 540c4 1 148 7 196 9c67 0 89 -18 179 -130v-283c-1 -166 -3 -251 -6 -255h-95c93 -113 119 -145 119 -192zM379 621v53l-94 106c-3 -13 -5 -21 -5 -26
c0 -27 20 -48 99 -133zM379 550v41l-97 107v-37c0 -4 12 -18 97 -111zM379 518c0 5 -31 41 -94 110v-40l94 -103v33zM282 563v-40l97 -107c0 50 0 50 -97 147zM379 384c0 4 -32 41 -97 111c0 -42 8 -53 94 -144c2 18 3 29 3 33zM377 288v33l-97 107v-31c0 -4 48 -58 97 -109
zM266 782l-229 4c0 -53 0 -79 -5 -357v-156h230zM377 222v36l-97 107v-36zM377 161v33l-97 108v-34zM354 159c-73 78 -92 98 -102 98c-3 0 -13 -1 -20 -3l84 -95c8 -1 18 -3 25 -3c5 0 10 1 13 3zM294 158c-18 23 -46 55 -83 94c-4 3 -11 5 -20 5c-3 0 -9 -2 -18 -5
c22 -30 93 -95 109 -95zM392 -33c-8 40 -23 60 -97 143c0 -49 0 -50 97 -143zM168 219c-31 34 -35 38 -45 38c-4 0 -10 -1 -17 -3c19 -24 34 -38 39 -38c4 0 10 1 23 3zM393 -71c0 10 -32 46 -95 109c-2 -7 -5 -16 -10 -29l99 -103c4 4 6 12 6 23zM118 211
c-36 43 -41 49 -56 49c-4 0 -10 -2 -19 -6c5 -3 14 -12 27 -29c10 -13 19 -20 28 -20c3 0 9 2 20 6zM379 -112l-100 104c-4 -5 -11 -13 -18 -25c66 -67 99 -101 100 -101c2 0 8 7 18 22zM276 71c0 69 -51 129 -114 129c-88 0 -147 -55 -147 -139c0 -66 59 -121 127 -121
c83 0 134 49 134 131zM348 -149l-100 105c-13 -5 -22 -11 -25 -18c32 -34 67 -68 105 -103c6 3 13 9 20 16zM308 -174l-107 107c0 -1 -10 -5 -28 -12c65 -70 98 -102 104 -102c5 0 15 2 31 7zM246 -180c-92 104 -92 104 -136 104c55 -71 101 -104 136 -104z" />
    <glyph glyph-name="quotedbl" unicode="&#x22;" 
 />
    <glyph glyph-name="numbersign" unicode="#" 
 />
    <glyph glyph-name="dollar" unicode="$" 
 />
    <glyph glyph-name="percent" unicode="%" 
 />
    <glyph glyph-name="ampersand" unicode="&#x26;" 
 />
    <glyph glyph-name="quotesingle" unicode="'" 
 />
    <glyph glyph-name="parenleft" unicode="(" 
 />
    <glyph glyph-name="parenright" unicode=")" 
 />
    <glyph glyph-name="asterisk" unicode="*" 
 />
    <glyph glyph-name="plus" unicode="+" 
 />
    <glyph glyph-name="comma" unicode="," 
 />
    <glyph glyph-name="hyphen" unicode="-" 
 />
    <glyph glyph-name="period" unicode="." 
 />
    <glyph glyph-name="slash" unicode="/" 
 />
    <glyph glyph-name="zero" unicode="0" horiz-adv-x="1024" 
d="M980 249c0 -255 -192 -448 -446 -448c-257 0 -534 294 -534 565c0 238 197 435 435 435c242 0 545 -309 545 -552zM942 362c-6 40 -46 102 -119 186c19 -80 20 -80 119 -186zM961 254c0 57 -2 61 -51 113c-18 19 -36 39 -53 60v-21c0 -38 9 -54 104 -152zM961 219
c0 5 -33 43 -98 116l-3 -39c0 -9 80 -95 98 -111c2 17 3 28 3 34zM953 156l-101 115l-9 -38l102 -111zM937 100l-102 113c-5 -8 -9 -19 -14 -31c23 -27 58 -64 105 -113c2 7 6 17 11 31zM916 47l-102 114c-3 -7 -8 -18 -15 -31l102 -108c2 5 7 14 15 25zM886 2l-101 112
c-6 -9 -11 -15 -16 -20c65 -75 99 -112 101 -112c3 0 9 7 16 20zM859 -38l-104 114l-19 -25c73 -84 81 -92 103 -107zM843 357c0 239 -184 427 -417 427c-227 0 -406 -190 -406 -430c0 -228 181 -408 409 -408s414 185 414 411zM820 -70l-99 110l-21 -16
c16 -21 50 -59 101 -116zM784 -104l-103 112c-4 -4 -10 -9 -18 -16l98 -110c11 7 22 14 23 14zM741 -132c-8 15 -94 114 -99 114c-1 0 -10 -5 -27 -16l100 -110zM693 -152c-62 73 -96 109 -101 109c-3 -1 -8 -3 -21 -8l94 -109c7 1 16 3 28 8zM643 -168l-98 108
c-7 -2 -17 -5 -30 -10l95 -107c9 3 20 6 33 9zM583 -178c-83 94 -94 106 -101 106c-8 -2 -35 -6 -36 -6c63 -69 95 -103 98 -103c13 1 29 3 39 3zM512 -182c-83 102 -90 110 -137 110c16 -15 28 -28 36 -39c51 -71 63 -71 101 -71zM437 -168c-85 100 -87 101 -156 118
c100 -113 107 -118 156 -118zM600 364c0 -99 -77 -181 -169 -181c-96 0 -171 81 -171 185c0 96 74 177 165 177c99 0 175 -78 175 -181zM556 446c-18 41 -62 75 -95 75c14 -19 33 -41 56 -67c10 -1 23 -3 39 -8zM492 454l-64 73c-9 0 -22 -3 -38 -9l72 -75c12 5 21 9 30 11z
M439 433l-70 79c-6 -1 -15 -7 -27 -18l77 -79c5 3 12 9 20 18zM579 380c0 37 -25 55 -74 55c-56 0 -107 -53 -107 -111c0 -60 32 -119 65 -119c82 37 116 85 116 175zM403 400l-78 83c-4 -5 -11 -13 -18 -25l81 -88zM382 342c0 9 -29 42 -86 100c-7 -14 -11 -25 -11 -34
c0 -2 31 -38 94 -107zM423 204c-9 9 -18 21 -28 38c-25 43 -26 43 -115 140v-39c26 -34 109 -139 129 -139h14z" />
    <glyph glyph-name="one" unicode="1" horiz-adv-x="591" 
d="M521 660l-4 -856h-285c-140 170 -140 170 -140 205c18 184 24 246 26 414l-118 141l4 226l10 10l375 1c43 -39 87 -86 132 -141zM508 649l-107 118v-43l102 -117c0 17 1 28 5 42zM504 579c-23 27 -59 64 -109 113v-45l110 -119zM504 447v45l-109 123v-47zM504 368v48
c0 7 -36 46 -109 117c0 -54 10 -66 109 -165zM504 292v41l-109 122v-45zM504 213v47l-110 120v-49zM504 165c0 23 -8 33 -110 135v-45l107 -117c2 5 3 14 3 27zM118 548c0 1 -1 4 -3 8h-11l-5 -5l16 -17c2 7 3 11 3 14zM501 61v43l-107 119v-46zM115 459v47
c0 13 -51 52 -67 52c-3 0 -10 -2 -20 -6zM379 784h-353l-7 -208h111l7 -10l-6 -614h233l8 5zM501 -14v41l-107 120v-44zM501 -89v41l-107 121v-42zM501 -128c0 17 -36 55 -108 130c-3 -17 -4 -25 -4 -26c0 -34 24 -60 110 -144c1 24 1 37 2 40zM477 -178
c-10 13 -93 108 -101 108h-58l99 -108h60zM387 -178l-101 108h-53l98 -108h56zM305 -178l-96 107h-66l101 -107h61z" />
    <glyph glyph-name="two" unicode="2" horiz-adv-x="870" 
d="M814 -16l-3 -176l-11 -7h-674l-123 134v176c97 56 195 134 295 234l-184 3c-27 27 -65 70 -114 127c0 115 17 175 120 249c73 51 152 77 236 77c150 0 239 -43 365 -196c59 -72 89 -134 89 -185c0 -86 -46 -174 -137 -265c2 -2 5 -4 8 -4c2 0 4 1 6 2
c101 -95 127 -128 127 -169zM790 425c0 3 -33 42 -101 119l-3 -51c0 -8 75 -91 100 -113zM779 353l-93 107c-8 -29 -11 -42 -13 -45c0 -4 79 -98 92 -98c3 7 8 19 14 36zM754 291c0 8 -18 28 -88 102l-13 -33l88 -95c9 16 13 25 13 26zM726 249l-83 94
c-5 -7 -10 -17 -16 -31l84 -90c4 5 9 14 15 27zM336 580l64 -72c0 52 -14 72 -64 72zM694 204c-47 52 -73 82 -79 89c-4 0 -11 -7 -20 -22l81 -86zM397 478c-50 63 -78 95 -85 95c-6 0 -14 -6 -25 -17l97 -105c4 7 8 16 13 27zM659 171l-76 87l-20 -23c52 -67 66 -80 80 -80
c5 0 10 5 16 16zM694 123v-34l102 -116c3 36 3 37 -102 150zM372 432l-96 103c-6 -10 -9 -19 -9 -28c0 -24 12 -38 80 -109zM605 156l-58 64l-17 -17c0 -5 11 -18 35 -47h40zM795 -100v41l-103 117v-37c0 -8 17 -28 103 -121zM673 -56v192h-242v16c158 111 237 233 237 365
c0 165 -119 267 -311 267c-198 0 -336 -119 -336 -295h225c1 74 33 111 98 111c42 0 79 -40 79 -85c0 -96 -161 -260 -403 -416v-155h653zM332 384c-61 71 -76 84 -92 84c-3 0 -17 -1 -41 -3c59 -67 94 -101 103 -101c15 0 25 7 30 20zM540 156c-8 9 -18 20 -31 33l-37 -33
h68zM795 -167v38c-21 25 -56 62 -103 109v-35zM262 366c-79 95 -91 106 -120 106c-8 0 -18 -2 -29 -5c90 -99 96 -106 124 -106zM777 -184c-24 35 -92 110 -107 110h-28c75 -92 94 -110 108 -110h27zM182 365l-95 103h-58c35 -44 65 -78 90 -103h63zM710 -179
c-91 104 -91 104 -120 104h-13c65 -71 100 -107 105 -107c9 2 21 3 28 3zM644 -181c-15 15 -30 31 -43 49c-42 57 -44 57 -95 57c91 -111 95 -111 138 -106zM574 -182c-79 92 -94 108 -121 108c-5 0 -9 -1 -14 -4c20 -24 52 -58 94 -104h41zM506 -183l-95 108h-35
c21 -24 52 -60 93 -108h37zM443 -182c-81 96 -93 107 -116 107c-4 0 -10 -1 -19 -3c21 -23 53 -58 94 -104h41zM377 -183l-92 108h-44l97 -108h39zM311 -183l-97 108h-39c7 -10 39 -46 95 -108h41zM245 -183l-97 108h-43l93 -108h47zM174 -183l-97 108h-43l101 -108h39z" />
    <glyph glyph-name="three" unicode="3" horiz-adv-x="862" 
d="M808 67c0 -170 -154 -266 -366 -266c-173 0 -249 44 -363 215c-54 81 -79 147 -79 197l12 8l255 -1c21 -19 53 -50 96 -95c24 3 42 9 55 18l-107 122v135l-5 6l-158 -2c-17 15 -57 59 -120 134c0 155 140 263 339 263c201 0 424 -195 424 -366c0 -64 -29 -117 -86 -158
c69 -59 103 -129 103 -210zM771 442c0 51 -18 98 -90 179c9 -20 13 -49 13 -87c0 -8 24 -37 77 -92zM771 415l-77 85l-12 -31l81 -89zM753 362l-80 85l-15 -29l79 -86c3 7 9 17 16 30zM722 313c-11 20 -18 28 -76 90c-7 -8 -15 -18 -22 -31c41 -46 54 -61 62 -83
c8 5 20 13 36 24zM408 547c0 39 -17 59 -51 59l-21 -6c26 -35 49 -60 68 -76c3 9 4 17 4 23zM787 102c-2 41 -30 92 -84 152c0 -2 3 -26 10 -73c0 -2 25 -28 74 -79zM395 500c-17 25 -42 52 -76 82c-7 -15 -10 -25 -10 -30c0 -17 7 -27 59 -79c13 5 22 14 27 27zM790 54
c0 22 -5 28 -78 105c-5 -14 -7 -23 -7 -26c0 -20 8 -29 79 -103c4 11 6 19 6 24zM349 464c-37 43 -57 64 -59 64h-39l61 -72c5 5 7 5 37 8zM778 8l-80 90c-3 -5 -8 -14 -14 -27l81 -90c6 0 7 4 13 27zM692 181c0 66 -22 112 -93 190c0 5 7 15 20 32c39 50 55 87 55 140
c0 156 -140 239 -296 239c-197 0 -329 -95 -329 -236h240c6 49 35 79 75 79c34 0 63 -34 63 -76c0 -59 -38 -101 -95 -108v-163c84 0 126 -28 126 -85c0 -49 -42 -86 -97 -86c-56 0 -94 33 -113 98h-227c0 -163 144 -255 343 -255c200 0 328 90 328 231zM310 422
c-3 11 -16 29 -38 52c-24 25 -39 43 -44 53h-42l89 -105h35zM759 -42l-86 98c-3 -5 -8 -14 -17 -27l87 -96c6 7 11 15 16 25zM250 422l-93 105h-34l87 -105h40zM728 -81l-87 97l-23 -22l89 -97c3 0 10 7 21 22zM438 196c0 35 -36 64 -80 64l-20 -1l90 -101c7 17 10 29 10 38
zM187 423l-96 105h-35c20 -23 50 -58 90 -105h41zM691 -118c-9 16 -38 50 -89 103c-5 -1 -7 -2 -24 -15c67 -78 86 -97 99 -97c2 0 7 3 14 9zM649 -140l-89 103c-7 -2 -17 -5 -32 -10l96 -103c2 1 10 4 25 10zM600 -160c-13 22 -85 106 -94 106c-3 0 -13 -2 -31 -7
c73 -85 92 -104 105 -104c4 0 11 2 20 5zM547 -169c-81 92 -95 106 -105 106l-26 -4l100 -110c10 0 20 3 31 8zM489 -178c-67 83 -94 111 -106 111c-14 0 -23 -2 -28 -6c88 -103 93 -108 112 -108c9 0 16 1 22 3zM325 -67h-38c44 -47 48 -53 74 -88c22 -25 30 -25 65 -25z
M354 -173c-91 108 -106 123 -144 123c22 -26 54 -65 98 -115c13 -1 28 -4 46 -8z" />
    <glyph glyph-name="four" unicode="4" horiz-adv-x="936" 
d="M879 50c0 -7 -2 -34 -6 -83h-93v-166h-260c-26 24 -36 35 -124 130l-3 33h-270l-120 134v210l293 487c29 4 50 6 64 6h293l131 -141v-389l95 -109v-112zM767 588v67c-33 36 -68 73 -107 111c0 -64 0 -64 51 -115c19 -19 38 -40 56 -63zM767 509v48l-107 119v-47zM767 436
v44l-107 118v-44zM767 361v44l-107 118v-45c0 -7 85 -99 107 -117zM765 293v34l-105 120v-46c0 -4 31 -39 93 -105zM725 299l-65 71v-71h65zM861 93v70c-62 71 -76 86 -102 105c-4 -15 -6 -25 -6 -30c0 -33 15 -52 108 -145zM861 -4v64l-102 115v-69zM839 -15
c-8 14 -90 103 -97 103h-65l98 -103h64zM739 110v167h-61c-9 0 -22 2 -38 6v500h-331l-289 -480v-196h385l8 -6v-149h225v148c24 9 55 10 101 10zM760 -82v49l-100 107v-48zM764 -143c0 32 -9 42 -106 142c-2 -15 -3 -22 -3 -23c0 -39 11 -50 105 -143c3 10 4 18 4 24z
M744 -181c-85 92 -110 115 -123 115c-5 0 -8 -2 -8 -7c93 -107 94 -108 119 -108h12zM680 -180c-17 26 -82 104 -94 109h-34l98 -109h30zM627 -178c-75 82 -103 110 -113 110c-1 0 -8 -1 -22 -4c72 -81 75 -85 89 -106c3 -2 8 -3 14 -3c15 2 24 3 32 3zM392 14v74h-65z
M562 -181c-72 93 -91 114 -104 114c-4 0 -15 -2 -34 -5c67 -82 95 -109 110 -109h28zM393 -18l-97 106h-39c86 -106 87 -106 136 -106zM321 -18l-96 106h-43c86 -106 87 -106 139 -106zM248 -15c-63 75 -92 105 -105 105c-12 0 -23 -2 -32 -6c87 -99 88 -99 137 -99z
M175 -15c-60 72 -90 104 -97 104h-46l95 -104h48zM414 280l-138 1c0 1 -3 2 -9 2c-4 0 -7 -1 -10 -3v17c33 55 84 137 154 244zM398 476v15c-1 -3 -3 -7 -6 -12c2 0 4 -1 6 -3zM398 395c0 50 -4 65 -21 69c-3 -7 -9 -18 -16 -32zM395 314v52c-10 11 -25 29 -47 51
c-10 -15 -15 -24 -15 -27c0 -11 9 -22 62 -76zM382 300c-13 17 -35 38 -64 65l-12 -24c23 -29 42 -44 58 -44c4 0 10 1 18 3zM317 299c-5 5 -13 14 -23 25l-12 -25h35z" />
    <glyph glyph-name="five" unicode="5" horiz-adv-x="778" 
d="M723 126c0 -178 -163 -325 -359 -325c-193 0 -193 0 -364 198c1 47 7 115 19 206c65 -33 129 -50 191 -50c35 0 69 6 102 18c-35 19 -72 29 -112 29c-13 0 -29 -1 -47 -3l-125 125c4 101 16 260 36 477h500c114 -107 132 -129 132 -175c0 -51 -3 -100 -9 -149h-176
c151 -151 212 -252 212 -351zM682 622c0 31 -15 50 -108 146c-3 -17 -4 -26 -5 -28c0 -37 12 -52 107 -147c4 14 6 24 6 29zM679 536c0 30 -12 43 -105 140c-1 -26 -1 -41 -2 -44c0 -17 22 -42 103 -128c3 13 4 24 4 32zM657 494l-99 103h-45l91 -103h53zM580 494
c-15 13 -29 29 -42 46c-39 51 -47 60 -83 60c-3 0 -6 -1 -10 -3l94 -103h41zM510 494c-60 74 -89 108 -111 108c-9 0 -17 -2 -24 -5c63 -71 99 -106 110 -106c4 0 13 1 25 3zM429 509c-10 11 -79 90 -88 90h-21l-1 -11c48 -61 68 -81 92 -81c3 0 12 1 18 2zM695 192
c-12 49 -37 92 -74 129c1 -15 5 -37 13 -64c4 -7 24 -29 61 -65zM351 516l-34 43l-5 -44c26 4 26 4 28 4c4 0 8 -1 11 -3zM702 148c0 3 -23 30 -68 81c-5 -12 -7 -19 -7 -22c0 -21 9 -35 72 -103c2 23 3 38 3 44zM696 61c0 27 -13 41 -72 98c-7 -13 -10 -22 -10 -25
c0 -18 11 -31 75 -94c5 10 7 17 7 21zM611 239c0 171 -97 256 -290 256c-7 0 -18 3 -33 9c0 37 11 102 20 113h244v164h2c-170 -2 -455 -4 -472 4l-36 -438c53 4 83 5 90 6c142 0 238 -48 238 -122c0 -60 -61 -97 -160 -97c-55 0 -116 15 -181 46c-9 -87 -12 -131 -12 -178
c79 -34 158 -51 237 -51c235 0 353 96 353 288zM678 22l-73 80c-7 -10 -12 -20 -16 -29l77 -83c3 9 7 19 12 32zM654 -27l-76 81c-5 -5 -11 -13 -18 -25l75 -83c3 2 10 11 19 27zM623 -68c-17 20 -45 48 -82 83l-19 -23c52 -59 62 -69 81 -82c9 9 16 16 20 22zM347 216
c-91 102 -101 112 -146 112l130 -142c13 12 16 19 16 30zM286 207c-90 104 -113 128 -131 128c-14 -2 -24 -3 -28 -3c95 -108 113 -127 146 -127c5 0 9 1 13 2zM584 -108c-10 14 -37 45 -81 93l-30 -15c57 -67 79 -89 92 -89c7 0 13 4 19 11zM201 223l-95 106l-27 2
c-5 0 -13 -2 -25 -6l105 -108c15 3 29 5 42 6zM540 -133l-85 93c-8 -2 -19 -6 -34 -12c70 -80 84 -95 87 -95c5 0 15 5 32 14zM488 -153c-59 65 -90 97 -93 97c-4 0 -14 -2 -30 -7l95 -103c7 1 16 6 28 13zM435 -171c-63 69 -96 104 -99 104c-21 0 -33 -1 -38 -4l102 -107
c8 2 20 4 35 7zM374 -180c-76 95 -93 112 -115 112c-13 0 -22 -1 -27 -3c69 -75 106 -112 111 -112c10 1 23 3 31 3zM311 -181c-98 116 -101 119 -131 119h-20l111 -119h40zM237 -175c-98 126 -100 127 -187 144c118 -128 136 -144 187 -144z" />
    <glyph glyph-name="six" unicode="6" horiz-adv-x="841" 
d="M793 105c0 -170 -146 -304 -330 -304c-228 0 -463 232 -463 457c0 99 146 543 258 543l303 -1c31 -22 62 -55 94 -100c-59 -60 -113 -129 -162 -206c121 -44 300 -241 300 -389zM631 700l-72 80l-21 -27l71 -75zM594 664c-27 34 -51 60 -74 78l-16 -22l74 -79
c3 5 9 13 16 23zM562 624l-73 82c-4 -5 -11 -13 -18 -25l75 -80c6 11 12 18 16 23zM530 586l-73 80c-3 -5 -9 -14 -18 -27l75 -80c6 12 11 21 16 27zM500 540l-76 84l-16 -30l78 -82zM467 502l-70 76c-10 -5 -15 -13 -15 -22c0 -6 6 -15 18 -26c13 -11 19 -18 19 -23
c11 -1 27 -2 48 -5zM769 148c-5 57 -38 116 -98 177c5 -15 10 -37 17 -66c3 -32 3 -33 81 -111zM392 509c-3 5 -9 11 -18 20h-6c-1 -5 -4 -12 -7 -20h31zM773 94c0 24 -5 29 -44 65c-13 14 -26 29 -39 44c-2 -11 -3 -19 -3 -24c0 -22 8 -31 80 -108c4 11 6 19 6 23zM761 41
c0 5 -27 37 -81 97l-14 -36l87 -92zM743 -11l-86 93l-15 -29l85 -93c5 7 11 17 16 29zM667 215c0 176 -113 272 -320 272l-13 14c6 48 101 178 202 283h-266c-100 0 -247 -387 -247 -520c0 -197 126 -321 331 -321c191 0 313 106 313 272zM715 -60c-10 17 -11 18 -88 99
c-4 -6 -10 -15 -17 -28l88 -92zM683 -96c-58 63 -87 95 -88 95c-7 0 -24 -14 -25 -21l88 -94c10 9 18 16 25 20zM641 -128l-89 98c-19 -9 -25 -14 -25 -17l90 -95c5 3 13 8 24 14zM594 -150c-6 9 -21 24 -49 52c-27 36 -34 43 -54 43c-3 0 -10 -3 -19 -9l94 -99
c5 1 15 5 28 13zM542 -170l-93 103l-38 -7l95 -106c8 2 20 5 36 10zM481 -181l-97 105h-42c89 -105 91 -105 139 -105zM402 -176c-72 91 -89 107 -125 107c-6 0 -12 -1 -17 -2c90 -99 96 -105 142 -105zM313 -155c-79 92 -80 92 -147 118c57 -70 106 -109 147 -118zM454 224
c0 -58 -43 -100 -103 -100c-56 0 -106 50 -106 106c0 50 45 95 97 95c61 0 112 -46 112 -101zM419 265c-8 20 -44 43 -66 43c-4 0 -7 -1 -10 -2c39 -47 44 -51 61 -51c4 0 9 3 15 10zM366 247c-2 6 -14 22 -44 54c-17 -6 -28 -14 -33 -23l52 -56zM431 224c0 13 -6 19 -17 19
c-34 0 -60 -27 -60 -61c0 -17 4 -30 11 -37c44 14 66 40 66 79zM337 184c0 19 -11 30 -61 80l-9 -27l65 -74c3 10 5 17 5 21z" />
    <glyph glyph-name="seven" unicode="7" horiz-adv-x="820" 
d="M774 668l-321 -867h-276l-117 137c7 29 37 118 91 267c51 141 76 216 76 223h-121l-103 130v238l11 5l640 -3c21 -19 61 -62 120 -130zM755 663l-100 116l-12 -35l99 -110c3 6 8 16 13 29zM733 611c0 4 -86 97 -98 109c-8 -16 -12 -25 -12 -26c0 -6 88 -98 102 -111
c6 17 7 26 8 28zM715 560l-99 110l-9 -31c0 -7 87 -98 99 -108c2 7 4 17 9 29zM697 507l-99 112l-14 -35l99 -111c3 7 8 19 14 34zM677 453l-99 108l-13 -32l100 -109zM657 397l-99 112c-3 -7 -7 -18 -12 -33l99 -111zM637 344l-98 111l-14 -35l100 -112zM616 289
c0 6 -86 97 -101 108c-1 -7 -3 -17 -6 -30l97 -109zM597 236l-97 110c-2 -7 -6 -17 -11 -30l100 -107zM270 543v12h-39l28 -32c7 12 11 19 11 20zM581 185l-100 112c-2 -6 -6 -19 -11 -38l97 -105c4 6 8 17 14 31zM252 497c0 10 -43 61 -60 61l-28 -1l77 -90zM632 783h-609
l-4 -209h265l13 -10l-218 -613h253c66 185 166 463 300 832zM560 130l-99 110c-2 -8 -5 -19 -9 -34l97 -108c2 7 6 18 11 32zM230 448c-60 71 -94 107 -103 107h-35l90 -107h48zM540 77l-97 109c-5 -9 -9 -20 -14 -32l100 -110c1 8 5 19 11 33zM158 448
c-21 23 -51 58 -92 105c-7 0 -19 1 -28 3c-1 0 -6 -1 -15 -4l88 -104h47zM520 25l-96 105c-7 -17 -11 -27 -11 -28c0 -6 81 -93 97 -106c3 7 6 16 10 29zM500 -28l-96 107c-8 -22 -12 -34 -13 -37c0 -12 79 -94 98 -107c2 8 5 21 11 37zM478 -88l-95 110l-9 -28l97 -107
c3 6 6 14 7 25zM461 -139c0 8 -78 94 -97 109c-2 -8 -6 -20 -11 -35l95 -106c5 11 9 21 13 32zM426 -180c-91 111 -92 111 -100 111l-32 -1l96 -110h36zM363 -178l-99 110h-41c76 -90 99 -115 105 -115c22 4 32 5 35 5zM293 -179l-98 111h-36l72 -81c14 -24 21 -31 30 -31z
M230 -180l-101 112h-39c21 -25 52 -62 93 -112h47z" />
    <glyph glyph-name="eight" unicode="8" horiz-adv-x="872" 
d="M817 63c0 -158 -145 -262 -365 -262c-228 0 -452 186 -452 388c0 77 48 153 126 198c-60 53 -90 115 -90 186c0 146 121 228 334 228c201 0 424 -170 424 -340c0 -62 -36 -132 -88 -172c74 -75 111 -150 111 -226zM772 436v50l-76 84c-1 -20 -3 -36 -5 -48zM767 409
l-80 88c-2 -7 -6 -17 -11 -31l80 -87c3 7 7 16 11 30zM744 363l-78 84c-3 -7 -8 -16 -15 -27c17 -20 43 -48 80 -84c3 5 8 14 13 27zM713 323l-78 83l-30 -27c15 -5 21 -10 89 -75zM792 116c-2 42 -29 88 -81 137c8 -61 15 -72 48 -101c17 -14 28 -26 33 -36zM800 62
c0 24 -9 36 -76 100c-5 -9 -7 -17 -7 -24c0 -23 9 -33 78 -101c3 12 5 20 5 25zM789 12l-76 85l-16 -30l81 -88c2 7 6 18 11 33zM705 179c0 73 -42 139 -126 199c75 80 97 105 97 185c0 118 -120 220 -257 220h-114c-138 0 -249 -94 -249 -211c0 -43 9 -79 28 -107
c24 -27 47 -55 69 -83c-91 -48 -136 -115 -136 -201c0 -142 136 -243 326 -243c126 0 362 34 362 241zM767 -39l-81 89c-4 -5 -10 -13 -17 -23l83 -92c5 5 10 14 15 26zM738 -80l-84 92c-4 -4 -10 -9 -18 -16c21 -31 49 -62 86 -95c5 4 10 10 16 19zM703 -113
c-54 67 -79 93 -88 93c-3 0 -9 -4 -20 -12l86 -93c10 3 17 7 22 12zM665 -136l-87 96c-7 -3 -17 -7 -30 -12c67 -82 80 -93 100 -93c3 0 9 3 17 9zM614 -155l-92 95c-7 -2 -18 -5 -33 -9c58 -65 89 -97 94 -97c4 0 14 4 31 11zM558 -171c-79 87 -91 99 -99 99
c-4 0 -12 -2 -24 -6c53 -65 86 -98 100 -98c8 0 16 2 23 5zM499 -179c-62 66 -95 99 -98 99l-30 -1l97 -102c20 2 30 3 31 4zM436 -180c-69 79 -89 100 -95 100h-30c71 -85 91 -102 114 -102c4 0 8 1 11 2zM370 -175c-89 106 -89 106 -139 106c19 -22 48 -56 88 -100
c19 -2 36 -4 51 -6zM287 -158c-82 95 -82 95 -153 125c55 -74 106 -116 153 -125zM458 534c0 -51 -40 -88 -96 -88s-94 39 -94 96c0 54 40 94 94 94c53 0 96 -46 96 -102zM468 190c0 -66 -60 -96 -106 -96c-59 0 -105 43 -105 98c0 59 44 108 98 108c66 0 113 -46 113 -110z
M421 589c-20 22 -25 24 -39 24c12 -19 21 -28 26 -28zM385 579c-23 25 -35 37 -38 37c-5 0 -15 -4 -30 -12c29 -38 36 -45 42 -45c2 0 11 7 26 20zM440 547c0 13 -7 20 -20 20c-30 0 -61 -27 -61 -54c0 -9 2 -13 19 -47c37 0 62 36 62 81zM345 532c0 9 -6 19 -17 30
c-14 13 -22 22 -25 28c-8 -3 -12 -10 -12 -23c0 -7 4 -14 11 -22c17 -14 31 -28 38 -38c0 2 2 11 5 25zM436 237c-13 25 -38 44 -59 44c38 -47 39 -47 59 -44zM391 233c-37 48 -41 52 -50 52c-7 0 -15 -4 -22 -11l45 -54c0 1 9 5 27 13zM449 196c0 16 -5 24 -15 24
c-55 0 -82 -22 -82 -66c0 -11 10 -35 17 -41c44 1 80 38 80 83zM350 201c0 8 -2 11 -49 61c-11 -3 -16 -11 -16 -22s4 -15 51 -66c13 23 14 25 14 27zM344 113c-3 5 -6 17 -10 35c-6 7 -26 29 -61 65c0 -61 20 -89 71 -100z" />
    <glyph glyph-name="nine" unicode="9" horiz-adv-x="849" 
d="M800 363c0 -172 -126 -430 -273 -560l-292 -2c-25 22 -66 67 -121 135c96 96 164 188 205 275c-125 0 -181 17 -243 86c-51 56 -76 125 -76 207c0 183 131 297 341 297c197 0 459 -236 459 -438zM772 429c-7 47 -45 106 -115 177c16 -81 24 -92 115 -177zM780 356
c0 38 -18 57 -98 138c-2 -16 -3 -25 -4 -26c0 -36 16 -53 97 -134c3 9 5 17 5 22zM772 305l-91 103c-5 -32 -6 -38 -6 -40c0 -7 74 -84 93 -99zM761 240l-89 103c-2 -3 -6 -15 -13 -37l93 -101c3 8 6 20 9 35zM744 182l-89 101c-7 -17 -11 -27 -11 -29c0 -6 72 -86 92 -102z
M726 130l-91 102l-14 -38l91 -99zM702 76l-90 99l-13 -29c0 -1 27 -33 82 -96h9c5 9 9 17 12 26zM662 456c0 195 -128 327 -318 327c-204 0 -324 -105 -324 -284c0 -160 106 -267 264 -267c16 0 32 1 48 4l12 -7c-3 -59 -127 -227 -190 -280l284 -2c132 145 224 354 224 509
zM678 27l-88 101l-15 -29l89 -96c3 5 8 13 14 24zM650 -14l-87 95c-4 -4 -9 -13 -15 -28l87 -97zM621 -60l-87 97c-3 -6 -8 -16 -16 -27c41 -51 65 -77 87 -93c7 7 13 14 16 23zM589 -101l-83 96c-6 -3 -7 -5 -19 -25l88 -92c4 4 8 12 14 21zM559 -138l-86 94l-23 -31
l82 -92c6 6 15 16 27 29zM514 -182l-91 110h-47c71 -91 88 -111 118 -111zM441 -179c-19 25 -50 60 -93 104c-3 3 -6 3 -29 3h-14l97 -107h39zM375 -180l-101 108h-50c77 -91 96 -112 126 -112c1 0 9 1 25 4zM297 -180l-101 108h-54c81 -101 91 -113 134 -113c1 0 9 1 21 5z
M441 501c0 -50 -46 -97 -95 -97c-62 0 -108 41 -108 97c0 59 43 104 98 104c59 0 105 -45 105 -104zM413 533c-8 28 -38 52 -66 52c41 -46 48 -52 61 -52h5zM368 533c-10 11 -25 28 -44 51c-8 -1 -19 -6 -33 -13c29 -35 46 -52 52 -52zM421 504c-12 7 -25 10 -39 10
c-21 0 -52 -31 -52 -53c0 -14 3 -26 8 -36c35 -4 83 20 83 79zM328 504l-52 53l-16 -32c10 -13 27 -31 51 -52c2 7 8 17 17 31zM312 429c-5 15 -23 39 -53 73c0 -1 -1 -5 -2 -7c0 -26 31 -66 55 -66z" />
    <glyph glyph-name="at" unicode="@" 
 />
    <glyph glyph-name="A" unicode="A" horiz-adv-x="1024" 
d="M1001 -187l-12 -9h-281c-106 113 -123 133 -137 160h-105c-9 -35 -23 -86 -43 -153l-12 -10c-68 0 -78 0 -190 -3c-37 0 -69 3 -94 8c-10 9 -52 56 -127 139l227 855h416c41 -39 85 -85 132 -137c40 -83 74 -220 226 -850zM778 583c0 49 -16 67 -126 185
c12 -79 13 -80 126 -185zM677 660c0 -51 1 -52 125 -176c0 45 -1 48 -125 176zM832 372c0 55 -12 69 -128 185c0 -50 0 -51 128 -185zM859 269c0 48 -16 68 -127 182c0 -56 5 -64 127 -182zM890 163c0 44 -10 56 -130 179c0 -51 4 -56 130 -179zM916 58c0 50 -6 58 -130 180
c0 -43 11 -59 130 -180zM945 -48c0 52 -2 55 -131 188c0 -57 8 -68 131 -188zM975 -166c-12 73 -13 78 -72 134c-39 37 -59 57 -60 59c10 -71 10 -71 132 -193zM840 -44l-215 827l-386 -4c-34 -149 -46 -196 -216 -826h250c25 112 29 126 42 158l230 1c2 -1 5 -2 12 -6
c5 -15 19 -65 40 -150h243zM957 -177l-106 111h-29l-5 -4c88 -96 103 -109 127 -109c5 0 9 1 13 2zM891 -177c-93 110 -97 113 -123 113c-3 0 -9 -2 -18 -5c68 -72 104 -108 109 -108h32zM827 -177l-106 111h-27c-1 0 -7 -1 -12 -3c65 -73 101 -109 108 -109zM555 37v6
l-15 51h-20c-5 0 -10 -2 -15 -5zM755 -175c-86 92 -105 109 -112 109h-29l105 -109h36zM571 -17c-76 104 -91 111 -134 111l-3 -6l103 -105h34zM508 -19l-106 111h-50c67 -74 103 -111 110 -111h46zM444 -40c0 7 -40 49 -119 127l-5 -27l117 -124c0 8 0 9 7 24zM431 -88
l-118 127c-5 -17 -7 -27 -7 -30c0 -7 39 -48 118 -123c1 5 3 15 7 26zM418 -141l-118 130c-3 -9 -7 -22 -11 -40l119 -124c3 8 7 19 10 34zM381 -178c-69 75 -107 113 -114 113c-16 0 -25 -2 -28 -5c79 -90 99 -108 114 -108h28zM312 -177c-10 16 -90 104 -101 109
c-5 2 -13 3 -22 3c-7 0 -13 -1 -18 -4l108 -108h33zM248 -177c-94 107 -98 111 -116 111c-13 0 -26 -2 -29 -3l103 -108h42zM175 -177c-75 84 -103 111 -120 111c-6 0 -13 -1 -22 -3c67 -72 103 -108 107 -108h35zM511 264c-24 -3 -27 -3 -152 -3l-4 7c3 27 28 122 77 286
c11 -6 28 -69 79 -290zM453 425l-21 72c-3 -8 -5 -22 -9 -40zM479 319c-6 46 -27 83 -63 112c-6 -13 -9 -19 -9 -20c0 -23 5 -28 72 -92zM488 279l-88 94c-4 -12 -6 -23 -8 -31c44 -52 61 -67 74 -67c3 0 8 1 22 4zM420 281l-33 40c-3 -9 -7 -22 -11 -40h44z" />
    <glyph glyph-name="B" unicode="B" horiz-adv-x="914" 
d="M857 61c0 -139 -118 -260 -254 -260h-467l-132 148v848c14 3 21 4 23 4h502c121 0 290 -193 290 -329c0 -72 -16 -95 -85 -176c82 -77 123 -156 123 -235zM794 526c-11 51 -38 94 -81 131c10 -35 10 -36 10 -56c30 -32 53 -58 71 -75zM801 471c0 21 -6 31 -76 104
c-5 -19 -7 -30 -7 -31c0 -22 16 -37 79 -95c3 7 4 15 4 22zM791 421l-78 85c-3 -7 -7 -16 -11 -30l75 -82c8 5 14 26 14 27zM768 372c0 8 -54 65 -78 86l-16 -25l80 -85c9 13 14 21 14 24zM740 335l-79 86l-31 -28c19 -10 26 -17 91 -77c6 4 12 10 19 19zM829 120
c-4 27 -14 43 -84 133c0 -50 3 -55 84 -133zM758 168c-2 -8 -4 -21 -6 -40l85 -89c0 43 0 44 -79 129zM831 11l-84 92l-13 -37l87 -93c5 5 6 8 10 38zM812 -46l-90 95c-6 -13 -12 -21 -16 -28l92 -95zM736 175c0 89 -36 145 -139 215c87 83 106 109 106 199
c0 93 -77 193 -171 193h-511v-830h511c120 0 204 119 204 223zM784 -92l-91 98l-19 -21l92 -97c5 4 11 11 18 20zM748 -124l-92 98l-22 -16l94 -99c13 3 19 9 20 17zM710 -151l-96 101c-7 -1 -17 -6 -31 -14c61 -67 96 -100 105 -100c7 0 15 4 22 13zM657 -173
c-58 73 -94 109 -107 109c-2 0 -6 -1 -21 -5c-3 0 -5 1 -6 3l105 -114c6 2 16 4 29 7zM599 -181l-106 114h-42l110 -114h38zM526 -181l-97 114h-32c-2 0 -6 -1 -12 -3l109 -111h32zM356 -67h-27c-2 0 -4 0 -11 -3c100 -115 101 -115 146 -112zM395 -181l-108 114h-30
c-3 0 -8 -2 -11 -3l108 -111h41zM320 -181c-70 83 -102 115 -116 115c-11 0 -22 -1 -31 -4c73 -83 102 -111 115 -111h32zM249 -181c-41 51 -105 114 -118 114c-6 0 -15 -1 -27 -3c67 -76 99 -111 113 -111h32zM181 -181l-107 110h-37l107 -110h37zM453 544
c0 -57 -36 -85 -109 -85c-6 0 -32 1 -77 3v156c6 5 34 7 84 7c68 0 102 -27 102 -81zM485 205c0 -53 -35 -90 -87 -90h-129c-1 11 -5 94 -6 131c0 51 4 52 59 52c97 0 98 0 121 -14c32 -20 42 -40 42 -79zM435 538c0 47 -21 69 -68 69h-43c54 -64 65 -73 89 -73
c2 1 7 2 22 4zM429 518c-1 1 -1 1 -1 2c-10 -3 -14 -2 -16 -3c-1 0 -3 1 -5 3c0 -8 1 -17 3 -29c19 20 19 21 19 27zM388 484v33l-92 91h-10v-34c0 -9 82 -96 91 -96c7 0 11 2 11 6zM340 480l-54 62v-62h54zM469 200c-2 45 -30 80 -66 80h2c-2 -1 -6 -1 -13 -2zM448 190
c-76 86 -85 94 -108 94c-5 0 -13 -2 -26 -6c53 -59 83 -88 91 -88h43zM460 170h-52v-34c22 0 49 19 52 34zM388 172l-102 106l-4 -19c0 -30 22 -58 97 -124c2 0 3 5 9 37zM348 135l-63 69v-69h63z" />
    <glyph glyph-name="C" unicode="C" horiz-adv-x="819" 
d="M759 381c-1 -3 -5 -17 -12 -43c-9 1 -21 12 -38 33c-55 69 -91 93 -149 93c-84 0 -152 -71 -152 -160c0 -43 12 -81 37 -113c67 -6 99 6 150 57c15 15 25 23 30 24c30 -31 74 -77 131 -139v-266c-71 -44 -152 -66 -244 -66c-232 0 -512 316 -512 567
c0 247 179 433 416 433c156 0 213 -32 341 -181zM741 611l-103 114c0 -34 3 -38 102 -140zM745 534c0 12 -3 21 -9 28c-22 22 -55 56 -98 102v-36l102 -111c4 10 4 14 5 17zM741 447v37l-103 113v-41zM741 367v48l-104 109v-47zM605 473c-15 22 -40 41 -77 57
c40 -57 56 -57 77 -57zM549 481c-49 55 -60 64 -78 64c-3 0 -9 -1 -18 -3c33 -45 58 -68 74 -68c4 0 11 2 22 7zM495 468c-40 46 -63 69 -70 69c-14 0 -23 -3 -26 -10c40 -45 68 -72 73 -72c7 0 14 4 23 13zM453 444l-77 76c-3 -3 -12 -9 -25 -20l77 -79zM741 82v39
l-104 113v-17c0 -31 0 -32 104 -135zM414 404l-80 86l-16 -26c13 -16 41 -45 84 -88zM741 18v35l-104 111c-4 -42 -4 -47 104 -146zM395 354l-89 95c-3 -7 -7 -17 -13 -30l95 -102zM741 -47v32l-103 113v-35zM619 739c-59 28 -128 42 -207 42c-229 0 -394 -176 -394 -418
c0 -243 169 -410 413 -410c69 0 131 14 185 43v247c-39 -48 -90 -72 -155 -72c-104 0 -196 90 -196 193c0 110 88 199 197 199c63 0 114 -22 154 -65zM402 229c0 51 -13 66 -115 165l-3 -35c0 -4 7 -12 118 -130zM741 -110v34l-103 110v-31c0 -8 77 -87 103 -113zM728 -128
c-63 71 -98 106 -103 106c-3 0 -12 -5 -29 -15c72 -81 83 -92 104 -104zM675 -153c-59 72 -92 108 -99 108c-1 0 -13 -2 -34 -8l101 -110c7 3 18 6 32 10zM622 -168c-69 73 -104 109 -105 109c-3 0 -14 -2 -33 -7l104 -109c11 1 23 4 34 7zM564 -179
c-91 111 -97 112 -144 109l106 -112h30c2 0 5 1 8 3zM496 -181c-84 96 -103 118 -154 118c101 -118 102 -118 154 -118zM413 -168c-6 9 -97 107 -104 111c-35 9 -40 12 -89 36c95 -106 146 -145 193 -147z" />
    <glyph glyph-name="D" unicode="D" horiz-adv-x="925" 
d="M874 264c0 -253 -185 -463 -409 -463h-320l-142 153v843l8 4l459 -4c79 0 250 -145 345 -288c39 -58 59 -140 59 -245zM857 344c0 28 -17 45 -90 118c-2 -9 -3 -15 -3 -18c0 -29 10 -43 90 -117c2 8 3 14 3 17zM859 265c0 27 -9 40 -83 116c-5 -6 -7 -15 -7 -27
c0 -28 9 -40 86 -110c3 13 4 20 4 21zM854 216l-83 89c-4 -12 -6 -20 -6 -25c0 -25 8 -36 82 -104c0 9 2 23 7 40zM841 149l-79 89c-7 -11 -11 -20 -11 -27c0 -11 66 -76 84 -90c2 5 4 14 6 28zM824 95c0 1 -28 32 -83 92c-3 -7 -8 -17 -13 -32l84 -90c8 17 12 27 12 30z
M802 44l-87 93c-3 -7 -9 -17 -16 -30l85 -87c5 0 11 8 18 24zM753 376c0 205 -149 407 -318 407h-411c-4 -92 -5 -134 -5 -151v-678h365c213 0 369 181 369 422zM776 -2l-90 95l-20 -26l93 -96c7 12 12 21 17 27zM744 -43l-92 95c-8 -9 -14 -16 -19 -21l92 -93
c7 1 14 7 19 19zM710 -79c-38 46 -69 79 -94 98l-21 -19l97 -97zM671 -112c-7 14 -88 103 -92 103c-24 -14 -28 -16 -29 -16c59 -66 93 -99 102 -99c5 0 11 4 19 12zM627 -137c-18 26 -88 103 -97 103c-2 -1 -11 -6 -27 -13l100 -101c5 3 13 6 24 11zM580 -157
c-64 69 -98 104 -102 104c-7 0 -18 -3 -31 -8l101 -106c14 3 25 7 32 10zM528 -170c-82 88 -102 107 -112 107c-9 0 -19 -2 -30 -5c72 -75 108 -109 115 -109c10 0 19 2 27 7zM464 -177c-74 84 -102 112 -116 112c-2 0 -2 0 -28 -4l109 -109zM398 -179
c-90 96 -108 113 -118 113h-28c25 -30 58 -67 98 -109c4 -3 12 -4 24 -4h24zM331 -180l-113 115h-38l108 -115h43zM257 -179c-100 114 -101 114 -127 114h-17l108 -114h36zM194 -180l-112 112h-40c99 -105 110 -115 136 -115c9 3 12 3 16 3zM504 367
c0 -107 -76 -182 -184 -182c-45 0 -55 2 -55 28l7 340h57c97 0 175 -82 175 -186zM452 424c-94 108 -96 108 -140 108l94 -108h46zM392 366v45l-103 110v-27c0 -25 4 -29 103 -128zM485 385c-19 13 -38 20 -57 20c-2 0 -3 0 -14 -2v-175c47 36 70 88 71 157zM392 288
c0 51 0 51 -59 110c-16 15 -31 32 -44 49v-50zM289 369v-45l102 -108c0 54 0 55 -102 153zM369 212l-82 83v-41c0 -2 28 -43 54 -48c13 0 23 2 28 6zM304 206l-15 17v-17h15z" />
    <glyph glyph-name="E" unicode="E" horiz-adv-x="778" 
d="M713 32l-5 -231h-579c-27 25 -70 73 -129 146v853h592l121 -134v-222c-5 -3 -14 -5 -27 -5c-12 0 -24 1 -69 5c-4 -1 -4 -1 -14 -8l84 -92v-179c1 -1 2 -4 2 -10l-2 -31h-53zM697 627v37l-102 107c0 -38 12 -54 102 -144zM697 564c0 36 -7 45 -99 137l-3 -28
c0 -11 68 -81 102 -109zM595 639v-53l104 -112c0 61 0 61 -104 165zM685 458c-91 109 -103 115 -119 115h-37l110 -115h46zM612 459c-95 98 -112 115 -123 115c-18 -4 -27 -5 -30 -5c72 -82 80 -88 105 -96c9 -3 16 -7 19 -14h29zM667 304v33l-101 111v-37
c0 -4 34 -40 101 -107zM519 480c-76 86 -87 94 -121 94c-5 0 -10 -2 -17 -5c74 -82 84 -93 112 -93c1 1 10 2 26 4zM566 383v-37c0 -5 34 -41 101 -109c2 41 1 42 -101 146zM441 480c-17 15 -32 30 -46 47c-37 45 -38 45 -96 45l86 -92h56zM668 195c0 12 -74 95 -102 120
v-33l102 -112v25zM353 480l-72 80v-46c0 -12 2 -23 5 -34h67zM661 147c-23 28 -58 66 -106 115l-15 3h-26l114 -118h33zM577 167c-73 85 -92 101 -120 101c-4 0 -8 -2 -12 -5c63 -64 96 -96 98 -96h34zM697 -13v37l-104 112v-40zM576 665l-4 118h-549l-4 -828h553v192h-313
v86c0 11 3 29 8 52h276v173c-119 -5 -140 -6 -169 -6c-77 0 -114 8 -114 24l1 66c1 33 5 50 10 50l299 -1c4 20 6 35 6 74zM511 167l-95 99h-40l94 -99h41zM697 -49c0 10 -91 104 -104 116v-46l103 -111c1 0 1 13 1 41zM441 168c-80 88 -96 100 -130 100c-3 0 -12 -1 -16 -3
c81 -94 90 -101 119 -101c1 1 10 2 27 4zM697 -115c-24 21 -58 56 -104 105v-41l104 -112v48zM358 167l-75 83v-83h75zM679 -180c-85 96 -105 117 -126 117c-2 0 -10 -2 -23 -5l106 -112h43zM608 -179c-16 16 -40 40 -70 73c-31 39 -32 41 -46 41l-31 -1l101 -113h46z
M536 -180l-106 115h-40l108 -115h38zM468 -181l-109 116h-42l112 -116h39zM397 -180l-108 115h-45l109 -115h44zM324 -181l-109 116h-40l112 -116h37zM253 -180l-109 115h-39l109 -115h39zM186 -179l-112 114h-42l104 -114h50z" />
    <glyph glyph-name="F" unicode="F" horiz-adv-x="752" 
d="M707 444c-20 -2 -38 -3 -54 -3c-18 0 -34 1 -48 4l-10 -6l81 -93v-214l-8 -6h-256l-8 -11l-4 -311h-278l-122 134v863h590l117 -130v-227zM688 628v39l-95 105v-39zM688 557v37l-95 108c-2 -8 -3 -13 -3 -16c0 -27 13 -44 98 -129zM688 482v40l-95 111
c-2 -15 -3 -23 -4 -24c0 -29 11 -41 99 -127zM680 459c-84 96 -103 118 -141 118c-1 0 -7 -1 -20 -4c69 -78 104 -114 111 -114h50zM593 460l-104 113h-42c67 -79 83 -96 89 -96c4 0 8 1 15 3c5 0 5 0 33 -24c2 0 5 1 9 4zM659 301v38l-98 108c0 -44 0 -45 98 -146zM505 479
l-85 94h-43l82 -94h46zM659 236v33l-98 109v-32c0 -5 21 -29 98 -110zM434 478c-19 21 -47 51 -83 93l-55 2c17 -13 31 -28 42 -43c28 -39 51 -58 70 -58h-2c0 1 10 3 28 6zM659 165v38l-98 110v-42zM355 478c-11 17 -18 24 -74 83v-83h74zM646 146l-109 119h-41l105 -119
h45zM576 146l-108 121h-40c25 -34 61 -74 108 -121h40zM571 592v189c-46 2 -382 10 -391 10c-63 0 -117 -2 -163 -7v-831h240l4 334h280v172h-279c-3 35 -3 55 -3 60c0 10 2 34 6 73h306zM509 146l-111 119h-41l109 -119h43zM436 146l-109 121h-37l112 -121h34zM386 119
c0 15 -87 115 -109 130v-44l108 -122c1 0 1 12 1 36zM277 171v-44l108 -119c3 42 3 43 -108 163zM384 -74v50l-107 117v-49zM387 -142c0 21 -6 40 -18 56c-50 50 -70 73 -89 98v-63c0 -6 79 -91 104 -114c2 11 3 18 3 23zM367 -180c-98 114 -98 114 -136 114l104 -114h32z
M305 -179c-78 93 -98 114 -111 114c-11 0 -19 -2 -26 -6c67 -72 103 -108 108 -108h29zM244 -180c-76 90 -99 114 -108 114h-36l102 -114h42zM172 -181c-81 95 -102 115 -114 115c-1 -1 -11 -2 -29 -4c78 -90 97 -111 114 -111h29z" />
    <glyph glyph-name="G" unicode="G" horiz-adv-x="946" 
d="M890 279l-4 -371c-86 -71 -201 -107 -345 -107c-15 0 -66 6 -154 17c-176 22 -387 357 -387 553c0 244 182 430 419 430c174 0 303 -81 434 -272l-103 -84h20l115 -121c3 -27 4 -42 5 -45zM832 533l-80 92c-7 -6 -16 -15 -27 -28c49 -57 75 -85 78 -85c4 0 5 0 29 21z
M787 496l-79 89c-22 -13 -23 -14 -23 -21l79 -85c5 4 13 10 23 17zM747 468l-79 86l-28 -21l79 -89zM872 251v57l-95 107v-61zM694 447l-68 75c-32 -28 -33 -29 -33 -30c11 -4 23 -19 34 -45h67zM873 191c0 18 -6 34 -17 48c-55 54 -62 61 -79 84v-52c0 -2 81 -87 94 -99
c1 7 2 13 2 19zM511 526c-44 57 -57 69 -74 69c-1 0 -2 0 -19 -2c7 -3 19 -17 36 -41c15 -20 29 -30 43 -30c9 3 12 4 14 4zM872 134c0 6 -16 24 -97 108c0 -47 2 -49 50 -97c15 -15 29 -32 44 -50c2 23 3 36 3 39zM463 516l-70 74c-6 -2 -15 -7 -27 -15l73 -78zM873 32
c0 28 -8 39 -95 135c-2 -10 -3 -17 -3 -21c0 -31 12 -45 96 -131c1 5 2 11 2 17zM422 483l-75 83c-8 -8 -14 -16 -17 -23l78 -81c4 4 8 12 14 21zM872 -26c0 10 -31 47 -96 112c-2 -13 -3 -20 -3 -21c0 -35 11 -50 96 -138zM607 447c-15 31 -63 61 -97 61
c-68 0 -118 -91 -118 -188c0 -78 47 -175 98 -175h26v23c-86 90 -94 99 -94 125v95c-1 -2 -1 -6 -1 -13c1 39 6 63 15 72h171zM396 446l-81 85c-4 -6 -9 -16 -16 -29l84 -97zM858 -92l-95 108c-4 -3 -11 -8 -19 -16l94 -102c5 3 11 6 20 10zM756 36v389h-315v-138h26
c29 0 52 -3 67 -9v-147c-10 -3 -14 -4 -16 -5c-177 0 -265 86 -265 258c0 131 74 229 175 229c66 0 121 -31 166 -93l145 117c-71 89 -193 146 -318 146c-231 0 -403 -178 -403 -417c0 -253 176 -419 440 -419c102 0 201 30 298 89zM377 386l-85 97c-3 -7 -7 -17 -11 -32
l92 -101c0 3 1 15 4 36zM516 196v70h-61zM818 -113c-55 70 -85 105 -90 105c-2 0 -11 -4 -26 -12c61 -68 93 -102 96 -102c3 1 8 3 20 9zM275 424c-2 -10 -3 -16 -3 -19c0 -25 0 -30 103 -136c5 57 4 57 -100 155zM775 -130l-90 101c-6 -1 -15 -5 -28 -10
c61 -68 92 -102 94 -102c1 1 9 5 24 11zM438 149c-11 10 -12 12 -65 97c-23 25 -56 62 -99 111c0 -52 0 -52 72 -134c33 -37 56 -61 68 -70c6 0 13 -2 24 -4zM729 -148l-92 103c-7 -3 -17 -5 -31 -8c20 -23 50 -57 91 -102c6 1 17 3 32 7zM677 -163c-61 69 -94 104 -100 104
c-1 0 -10 -1 -26 -5c63 -69 96 -104 100 -104zM623 -173c-78 89 -94 106 -100 106c-5 -1 -23 -4 -26 -4c20 -29 76 -89 93 -107c6 2 18 3 33 5zM565 -181l-98 110h-32c21 -25 52 -61 95 -109zM502 -179c-21 28 -52 64 -93 107c-4 3 -13 5 -26 5h-16c76 -94 94 -112 108 -112
h27zM432 -170c-18 18 -43 46 -75 84c-8 19 -12 23 -40 27c-14 2 -24 5 -29 8c92 -108 104 -121 131 -121c4 0 8 1 13 2z" />
    <glyph glyph-name="H" unicode="H" horiz-adv-x="929" 
d="M859 -199h-271l-120 141v185c-8 4 -9 4 -56 4c-6 -64 -6 -67 -6 -324l-11 -6h-269l-123 144v849c15 5 23 7 25 7l244 -1c31 -26 47 -43 136 -149v-168h30c12 1 22 3 30 7v307l4 3h253l134 -157v-842zM843 587c0 54 -9 66 -104 169c-2 -10 -3 -17 -3 -22
c0 -36 12 -51 107 -147zM844 546c0 7 -50 67 -106 127v-46l105 -121c1 0 1 13 1 40zM843 426v42c0 7 -35 49 -105 125v-44zM844 388c0 8 -15 27 -106 128l-3 -41c7 -10 43 -51 105 -123c3 19 4 31 4 36zM844 315c0 3 -35 45 -106 125v-42l105 -117c1 0 1 11 1 34zM843 200
c0 53 -6 60 -105 168v-50zM389 597v49l-107 126v-53zM738 290v-42l106 -120v12c0 36 -1 37 -106 150zM389 522v44l-107 123v-50c0 -8 80 -94 107 -117zM843 48v48l-110 124c-3 -56 -2 -56 110 -172zM389 489l-107 120v-48c0 -1 21 -26 64 -75l23 -1c6 0 13 1 20 4zM841 -24
v38c0 7 -34 49 -103 124v-44zM319 486l-37 45v-45h37zM843 -95v35l-105 123v-39zM717 -45v826h-231v-307l-8 -10h-215v318h-158c-27 0 -55 -1 -84 -4v-822h241v321l8 8h207l9 -8v-322h231zM467 262c-4 3 -8 4 -11 4h-10c0 -9 6 -18 18 -28c0 6 1 14 3 24zM841 -167v41
l-106 122v-40c0 -6 17 -26 106 -123zM467 182c0 30 -40 78 -49 80c-8 2 -18 3 -30 3c-7 -2 -11 -3 -13 -3l92 -104v24zM825 -180c-75 94 -94 115 -122 115c-7 0 -15 -1 -25 -4l97 -111h50zM448 148c-77 97 -96 118 -115 118c-11 0 -21 -1 -30 -4c23 -25 56 -63 100 -114h45z
M747 -180l-95 114h-38c21 -26 55 -63 100 -114h33zM392 117c0 11 -37 57 -110 137v-56l107 -123c0 8 1 22 3 42zM687 -181c-35 52 -92 116 -109 116c-9 0 -15 -2 -18 -5l100 -111h27zM630 -180c-64 79 -97 115 -105 115h-24l94 -115h35zM389 -3v46l-107 122v-45zM389 -89v54
l-109 122v-52zM389 -173v52l-109 122c0 -58 6 -66 109 -174zM365 -180c-89 112 -99 115 -135 115c4 -6 85 -116 111 -116zM303 -179c-90 100 -103 114 -112 114h-27l99 -114h40zM238 -180c-22 28 -55 66 -100 113c-3 2 -10 3 -19 3h-24l101 -116h42zM172 -180l-104 116h-36
l98 -116h42z" />
    <glyph glyph-name="I" unicode="I" horiz-adv-x="481" 
d="M406 -199h-270l-136 148l4 852h273c13 0 58 -47 133 -140zM391 620v33l-107 121c0 -47 0 -47 107 -154zM391 551v33l-107 118v-38zM391 474v45l-109 117c-1 0 -1 -12 -1 -38c0 -4 13 -19 110 -124zM391 408v37l-109 119c-1 0 -1 -11 -1 -34c0 -6 25 -33 110 -122z
M391 338v39l-109 117v-35zM394 301c0 3 -37 45 -110 124l-3 -34c0 -5 21 -27 110 -119c2 16 3 26 3 29zM282 356c-3 -46 -2 -46 112 -155c0 39 0 40 -112 155zM282 286v-43c0 -7 91 -98 112 -116c0 54 -1 55 -112 159zM267 433c-1 3 -2 8 -7 20c3 5 5 15 5 30v299h-247v-820
l245 -5zM394 51v43c-25 26 -62 64 -112 115v-38c0 -6 35 -43 112 -120zM394 -25v42l-112 121v-46zM394 -94v36l-110 119v-39zM394 -167v37l-110 121v-34zM377 -181c-90 99 -114 122 -126 122c-3 0 -8 -1 -15 -3c86 -95 113 -121 122 -121c17 2 18 2 19 2zM322 -181
c-87 99 -111 121 -129 121c-6 0 -12 -2 -18 -5l115 -116h32zM259 -181c-92 99 -115 120 -127 120c-1 0 -11 -1 -31 -4l117 -116h41zM187 -181c-110 120 -111 120 -139 120c-9 0 -14 -1 -17 -2l114 -118h42z" />
    <glyph glyph-name="J" unicode="J" horiz-adv-x="652" 
d="M587 55c0 -141 -175 -258 -367 -258c-31 0 -71 25 -120 76c-2 3 -35 42 -99 118l-1 229l7 9c18 -11 43 -17 74 -17c64 0 96 23 96 70v512l6 7h271l133 -145v-601zM569 621v30l-108 114v-30zM569 555v31c0 8 -36 47 -108 118v-35zM569 483v40l-108 114v-38zM461 564
l-1 -22c0 -20 2 -23 110 -123c0 38 0 40 -109 145zM572 347c0 41 -12 56 -111 149v-33zM571 316l-110 113v-40c0 -9 75 -84 110 -112v39zM572 201c-2 3 -3 17 -3 41l-108 114v-41c0 -5 37 -43 111 -114zM569 131v42c-23 26 -59 63 -108 112v-40zM569 102l-108 112
c0 -33 3 -47 17 -63c69 -66 73 -70 87 -87l-2 25c0 4 2 8 6 13zM438 155v627h-241v-500c0 -32 -15 -90 -109 -90l-71 12v-170v2c1 -4 2 -21 4 -50c49 -20 96 -30 141 -30c150 0 276 88 276 199zM560 37l-100 107c-3 -8 -6 -19 -10 -32l102 -105zM544 -15l-98 106l-17 -31
c21 -24 56 -57 103 -100zM515 -59l-99 105l-19 -23l103 -102c5 5 10 11 15 20zM482 -95l-97 106c-11 -6 -20 -13 -29 -22l105 -103zM440 -125c-72 82 -89 100 -107 100c-3 0 -9 -4 -18 -11l101 -103c7 2 15 7 24 14zM396 -150c-63 70 -99 105 -107 105c-5 0 -13 -3 -23 -10
c64 -70 101 -105 111 -105c7 0 13 3 19 10zM344 -168c-42 52 -98 110 -106 110c-1 -1 -11 -3 -29 -7c96 -99 106 -109 110 -109zM290 -178c-93 114 -94 114 -151 114c69 -76 106 -114 111 -114h40zM216 -178c-111 120 -122 131 -160 131c99 -122 109 -131 136 -131h24z" />
    <glyph glyph-name="K" unicode="K" horiz-adv-x="971" 
d="M923 630l-239 -415l234 -411l-6 -3h-339c-132 145 -151 165 -170 214l-4 -213h-268l-128 142v854l260 1l127 -132c17 31 44 76 83 135h243c32 0 58 -10 78 -29c43 -48 86 -96 129 -143zM903 627c-41 43 -87 91 -138 145c-4 -6 -9 -16 -15 -31l137 -142zM875 580l-138 146
l-15 -29l137 -146zM848 532l-138 147l-14 -26l138 -147c5 7 9 16 14 26zM823 487l-140 146c-3 -6 -8 -16 -16 -27c41 -48 89 -96 142 -145zM795 440l-138 148l-15 -28l139 -145c3 5 8 14 14 25zM768 397c-83 93 -103 114 -139 145l-12 -23c49 -60 95 -109 139 -147zM743 350
l-136 148c-3 -7 -8 -17 -15 -30l138 -143c3 6 7 14 13 25zM380 651l-105 114v-54c0 -8 38 -49 86 -94c5 11 12 23 19 34zM716 307l-136 145l-15 -28c92 -103 105 -117 137 -143c7 9 11 18 14 26zM349 599l-74 80c-4 -9 -6 -16 -6 -19c0 -22 22 -51 67 -86zM688 264l-134 142
c-5 -7 -11 -17 -19 -31c29 -33 74 -82 136 -145c7 12 13 23 17 34zM321 554c-3 4 -18 22 -46 54c-1 -25 -2 -39 -3 -41v2c0 -8 24 -35 36 -43c9 16 13 25 13 28zM297 509c-7 10 -15 17 -25 22l1 -63zM745 778l-269 -2c-46 -79 -117 -198 -212 -355l-8 4v353h-237v-823h236
v328l9 4c45 -72 110 -182 194 -330h285c-63 109 -140 246 -231 411zM865 -180c-83 96 -104 119 -121 119c-15 0 -28 -2 -39 -6c77 -86 106 -114 114 -114zM787 -181c-85 97 -105 117 -132 117c-3 0 -10 -1 -20 -3c72 -76 110 -114 115 -114h37zM717 -181
c-89 105 -104 121 -122 121c-15 0 -28 -2 -39 -7l109 -114h52zM336 129l-61 112l-6 -22c0 -23 13 -36 67 -90zM526 -64h-33c-3 0 -9 -1 -18 -3c71 -77 110 -115 115 -115c30 0 46 0 46 1zM383 36c0 10 -36 54 -108 132v-55l107 -115c1 0 1 13 1 38zM381 -82v48l-109 122
c-2 -16 -3 -24 -4 -25c0 -26 17 -46 113 -145zM381 -164v49l-106 121v-52zM370 -181c-93 101 -109 117 -117 117h-38c103 -107 113 -117 118 -117h37zM298 -181c-96 105 -110 120 -120 120c-3 0 -8 -1 -17 -3c99 -117 101 -117 137 -117zM243 -180c-74 82 -111 119 -117 119
s-15 -1 -30 -3c86 -94 114 -120 133 -120c5 0 9 1 14 4zM178 -181c-84 99 -104 121 -124 121c-12 0 -20 -2 -25 -7c71 -76 109 -114 114 -114h35z" />
    <glyph glyph-name="L" unicode="L" horiz-adv-x="708" 
d="M678 -167c0 -2 -2 -13 -6 -32h-545l-127 139v854l10 7h269l122 -137v-478c16 -3 35 -5 58 -5c21 0 70 2 84 3l16 -2c37 -37 75 -81 115 -133zM383 619v36l-99 113v-42zM383 549v38l-99 111v-47c21 -23 54 -57 99 -102zM383 474v43l-99 108c-3 -8 -5 -14 -5 -19
c0 -30 15 -46 104 -132zM383 395v45l-99 110v-48zM383 319v46l-99 109v-46zM658 18c0 29 -12 43 -97 134c0 -54 0 -54 46 -100c17 -16 33 -34 48 -53c2 9 3 16 3 19zM383 246v39l-101 113c0 -51 0 -51 101 -152zM539 -42v208c-103 -4 -147 -5 -171 -5c-42 0 -77 3 -105 9
v611h-243v-827h509c3 1 3 1 10 4zM563 70v-48l96 -101c0 51 0 53 -96 149zM383 186v32l-99 107c-3 -14 -4 -19 -5 -22c0 -27 17 -44 89 -115c3 0 8 -1 15 -2zM344 187l-60 64v-64h60zM662 -143c0 32 -12 47 -99 137l-4 -23c0 -29 12 -43 100 -135c2 8 3 15 3 21zM645 -182
c-92 116 -96 120 -121 120c-1 -1 -9 -2 -24 -4c81 -96 102 -116 117 -116h28zM579 -180c-93 109 -102 118 -122 118c-10 0 -17 -1 -22 -4c70 -77 107 -116 112 -116zM514 -181c-91 112 -99 119 -120 119c-9 0 -18 -1 -25 -4l111 -115h34zM448 -181l-111 117h-39l114 -117h36
zM381 -181c-23 27 -60 66 -110 116c-3 3 -8 4 -15 4c-5 0 -13 -2 -25 -5l111 -115h39zM314 -181c-24 29 -61 68 -110 116c-3 2 -10 3 -22 3c-4 0 -10 -1 -18 -3c70 -79 108 -116 118 -116h32zM246 -181c-77 91 -109 121 -126 121c-9 0 -17 -2 -24 -5
c88 -91 113 -116 118 -116h32zM183 -183c-85 101 -107 124 -128 124c-9 0 -18 -2 -25 -6c71 -79 109 -118 112 -118h41z" />
    <glyph glyph-name="M" unicode="M" horiz-adv-x="1196" 
d="M1136 -199h-292c-13 11 -46 48 -100 110c-17 -39 -28 -75 -35 -107h-172l-107 122c-17 -101 -23 -125 -33 -125c-60 0 -150 2 -270 6c-13 15 -55 64 -127 144c42 598 48 674 73 845l303 -1c102 -100 129 -138 169 -249c83 255 84 255 96 255l254 -4
c25 0 153 -123 169 -158c16 -181 28 -297 49 -493c15 -141 23 -256 23 -345zM1051 605c0 15 -5 29 -15 42c-23 23 -57 58 -102 105c0 -51 7 -58 115 -164c2 10 2 16 2 17zM1056 505c0 49 -7 57 -66 117c-18 18 -34 36 -48 54v-17c0 -43 3 -47 114 -154zM947 592
c0 -57 0 -58 117 -171c0 52 0 53 -117 171zM1071 337c0 49 0 52 -116 172c0 -51 6 -62 57 -110c23 -21 42 -42 59 -62zM962 427c0 -54 0 -54 116 -168c0 55 0 56 -116 168zM1084 184v34l-116 130c0 -46 0 -47 116 -164zM975 270c0 -39 14 -58 117 -161c0 48 0 55 -117 161z
M982 201v-12c0 -42 0 -42 116 -153c0 45 -2 48 -116 165zM987 124c0 -43 0 -43 118 -161c0 37 -1 39 -118 161zM533 504c0 30 -9 42 -114 154c8 -69 20 -83 108 -169c4 8 6 13 6 15zM993 53c0 -42 10 -54 68 -111c19 -17 35 -35 50 -54c2 48 2 49 -118 165zM517 456
c0 20 -13 37 -60 79c9 -44 28 -76 56 -96c3 10 4 16 4 17zM1117 -171c0 21 0 21 -117 152c0 -32 11 -44 117 -152zM697 203l-7 57l-10 -37c0 -8 10 -20 17 -20zM504 416l-13 15c2 -6 5 -15 8 -27c3 5 5 9 5 12zM1093 -176c-92 107 -101 114 -125 114c-1 0 -7 -1 -18 -4
l105 -110h38zM981 -45l-70 823h-270c-27 -92 -69 -227 -128 -406l-14 -9c-32 88 -75 211 -129 368c-8 31 -15 50 -30 50l-253 -1l-70 -822h247c20 269 28 347 36 355l14 -7l116 -351h137c78 259 118 363 131 363c12 0 14 -16 41 -363h242zM704 125v24c0 18 -4 22 -33 48
c-6 -11 -9 -18 -9 -21c0 -9 34 -47 42 -51zM1029 -179l-109 116h-36c69 -77 107 -116 113 -116h32zM713 60c0 26 -20 56 -59 89c-6 -17 -9 -26 -9 -27c0 -7 5 -16 14 -26c25 -21 38 -33 51 -50c2 7 3 11 3 14zM965 -178c-83 91 -108 116 -117 116c-1 0 -8 0 -32 -4
c89 -94 108 -112 113 -112h36zM721 -17c0 24 -10 36 -82 112l-10 -37l92 -96v21zM894 -178c-91 101 -104 115 -130 115c-4 0 -10 -1 -18 -3c68 -75 104 -112 107 -112h41zM727 -76l-107 114c-2 -8 -5 -21 -11 -37l107 -112c3 8 7 19 11 35zM708 -131l-106 113
c-3 -8 -7 -19 -11 -35l106 -118c2 9 6 22 11 40zM323 208l-10 44c-3 -3 -4 -8 -4 -15c0 -10 5 -20 14 -29zM357 107c-5 30 -23 61 -53 93c-3 -8 -5 -13 -5 -16c0 -18 6 -26 58 -77zM675 -180c-22 26 -56 64 -101 115l-29 2c-5 0 -12 -1 -21 -3c88 -96 106 -114 117 -114h34z
M398 -17c0 47 -28 91 -100 158l-5 -39zM602 -180l-108 117h-48c77 -99 98 -121 131 -121c1 0 9 1 25 4zM408 -56l-116 125c1 -1 2 -4 2 -8c-1 -11 -3 -26 -3 -33c0 -6 18 -27 111 -128zM289 0l-6 -50l115 -123c3 50 3 51 -109 173zM375 -178c-72 75 -110 113 -114 113h-22
c85 -98 101 -115 127 -115c3 0 6 1 9 2zM316 -179c-22 27 -57 65 -104 112l-32 3h-14l108 -115h42zM246 -182l-111 119l-40 -2c24 -25 59 -64 105 -117h46zM176 -181c-81 96 -107 121 -122 121c-11 0 -18 -2 -22 -6c69 -77 107 -115 113 -115h31z" />
    <glyph glyph-name="N" unicode="N" horiz-adv-x="946" 
d="M875 -199h-287c-47 47 -108 130 -181 249l-3 -249h-284l-120 132v860l7 5h270l197 -217c4 26 6 49 6 93c-2 64 -2 107 -2 127h136l133 -3c29 -24 72 -69 128 -136v-861zM856 614v39l-102 116v-41c0 -5 22 -30 102 -114zM856 549v35l-102 113v-40zM858 475l-2 43
c-7 8 -41 45 -102 111v-47l96 -107h8zM858 425c0 17 -36 59 -107 127v-43l107 -113v29zM857 354c0 7 -34 49 -103 125l-3 -39c0 -5 21 -28 106 -115v29zM857 255v35l-106 118v-39zM754 338c-2 -24 -3 -30 -3 -37c0 -11 20 -31 107 -118v17c0 32 -1 34 -104 138zM475 509v42
l-155 178c48 -106 66 -131 155 -220zM857 112v39c0 4 -35 41 -106 112v-38zM475 445c0 33 0 34 -27 61c-7 7 -13 15 -19 23zM857 41v39l-106 116v-47zM857 -30v39l-105 112c-1 0 -1 -11 -1 -34c0 -5 40 -48 106 -117zM857 -103v42l-105 115c-1 0 -1 -13 -1 -40
c0 -4 5 -11 106 -117zM731 -49v828h-225c-2 2 -3 2 -10 2v-371l-12 -11c-50 84 -123 211 -219 382h-244v-827h239v352l9 7c10 -1 82 -122 215 -362h247zM857 -170v33l-106 117v-32zM842 -181c-81 94 -102 115 -115 115c-11 0 -20 -1 -26 -3c28 -33 102 -117 116 -117
c2 1 10 2 25 5zM776 -181l-96 113h-30c0 -1 -4 -1 -12 -3c23 -25 58 -62 106 -110h32zM329 183l-48 85c-4 -10 -5 -17 -5 -18c0 -17 18 -40 53 -67zM717 -181c-21 26 -54 62 -100 108c-4 3 -11 5 -22 5h-25l107 -113h40zM387 51v33c0 1 -36 41 -107 118v-37
c0 -6 36 -44 107 -114zM648 -181c-69 75 -106 112 -113 112h-36l104 -112h45zM387 10c0 10 -16 30 -107 124v-46l106 -115c1 0 1 12 1 37zM387 -100v42l-108 118l2 -52c87 -92 94 -100 106 -108zM280 -19v-29l106 -118c3 29 3 30 -106 147zM372 -181
c-96 116 -97 116 -118 116c-13 0 -21 -2 -24 -7l108 -109h34zM308 -181c-87 97 -106 115 -119 115c-5 0 -12 -1 -23 -3c70 -77 103 -112 108 -112h34zM245 -181c-106 115 -106 115 -144 115l109 -115h35zM176 -181l-104 113h-47l107 -113h44z" />
    <glyph glyph-name="O" unicode="O" horiz-adv-x="1048" 
d="M999 230c0 -231 -206 -429 -445 -429c-252 0 -554 305 -554 561c0 247 185 439 423 439c272 0 576 -301 576 -571zM953 378c-11 47 -53 108 -127 183c5 -11 13 -28 23 -51c6 -38 7 -38 104 -132zM978 287c0 40 -20 63 -113 156c0 -46 0 -47 113 -156zM978 205v46
l-105 111c1 -1 2 -3 2 -7c-1 -11 -3 -26 -3 -34c0 -6 17 -24 106 -116zM973 178l-105 112c-3 -15 -6 -27 -9 -36l108 -110c2 6 4 18 6 34zM962 120l-108 113c-3 -7 -7 -16 -10 -28c23 -25 59 -62 107 -110c3 6 7 13 11 25zM941 73l-107 112c-9 -16 -13 -25 -13 -26
c0 -7 101 -105 109 -112c2 6 6 15 11 26zM917 27l-110 115c-3 -7 -9 -17 -16 -30c42 -51 79 -88 112 -111c3 5 8 14 14 26zM887 -20c-1 0 -38 39 -112 116l-17 -23l111 -114zM852 370c0 232 -189 415 -429 415c-219 0 -406 -189 -406 -410c0 -244 191 -417 430 -417
c224 0 405 187 405 412zM851 -54l-111 113l-18 -22l111 -113c5 4 11 11 18 22zM812 -87l-108 113l-23 -18l110 -114c14 8 21 14 21 19zM775 -120l-114 119l-24 -16l111 -117c5 4 15 8 27 14zM726 -145l-108 119c-7 0 -17 -4 -31 -12c71 -77 110 -115 115 -115c1 1 9 4 24 8z
M676 -164l-114 121c-7 -2 -17 -5 -30 -10l116 -120c7 3 17 6 28 9zM621 -177c-101 107 -114 121 -121 121s-18 -2 -33 -6c24 -29 61 -67 110 -116c2 -1 5 -2 10 -2c10 0 21 1 34 3zM552 -180c-107 123 -109 123 -133 123l-26 -1c105 -125 108 -125 126 -125c11 0 22 1 33 3z
M476 -174c-125 135 -125 135 -176 135c119 -128 135 -140 176 -135zM601 366c0 -95 -74 -177 -160 -177c-99 0 -167 78 -167 190c0 91 71 173 151 173c105 0 176 -76 176 -186zM510 462c-2 4 -22 29 -60 74h-15c-10 0 -19 -2 -26 -6c59 -65 65 -71 85 -71c3 0 7 1 16 3z
M459 448c-44 52 -68 78 -72 78c-6 0 -15 -5 -27 -14c45 -52 71 -78 80 -78c5 0 11 5 19 14zM582 370c0 54 -18 73 -69 73c-63 0 -106 -50 -106 -122c0 -52 34 -109 67 -109c46 0 108 82 108 158zM420 419l-79 79l-17 -15c10 -19 14 -24 79 -92c6 12 12 21 17 28zM395 369
l-83 92c-9 -17 -13 -27 -13 -31c0 -8 28 -38 88 -99c-1 1 -2 2 -2 5s0 3 10 33zM436 208c-12 11 -22 26 -31 47c-21 48 -25 53 -112 148l-5 -44c0 -12 111 -123 148 -151z" />
    <glyph glyph-name="P" unicode="P" horiz-adv-x="888" 
d="M855 381c0 -196 -149 -315 -386 -315h-55l-4 -259l-10 -6h-275l-125 135v856l12 9c83 0 145 2 361 9c182 0 271 -52 429 -251c35 -45 53 -105 53 -178zM832 385c0 45 0 45 -46 91c-13 13 -25 27 -36 41v-43zM831 339c0 23 -10 34 -83 108c-3 -7 -6 -19 -10 -34l89 -95
c3 12 4 19 4 21zM821 296l-88 95c-10 -20 -15 -31 -15 -32c53 -61 83 -91 92 -91c3 7 7 15 11 28zM797 246l-87 95c-2 -4 -7 -12 -13 -27l88 -90c2 1 5 9 12 22zM772 204l-91 95c-4 -5 -9 -13 -15 -24c55 -61 83 -91 85 -91c4 0 5 0 21 20zM738 169c-33 43 -63 74 -90 94
l-19 -20l91 -93zM701 137l-88 96c-7 -3 -16 -7 -26 -14l94 -97zM659 112c-20 25 -87 100 -91 100c-2 0 -12 -4 -29 -11c59 -65 91 -98 94 -98c5 0 13 3 26 9zM729 495c0 179 -127 288 -334 288h-371c-4 -35 -4 -55 -5 -60v-770h247v251c11 5 63 10 156 13
c217 6 307 92 307 278zM609 95l-96 101c-8 0 -19 -3 -32 -9l98 -100c7 1 17 3 30 8zM552 86l-101 104h-31c14 -20 34 -43 93 -104h39zM491 83c-81 87 -103 108 -112 108c-3 0 -10 -1 -20 -3c65 -72 103 -108 116 -108c3 0 8 1 16 3zM431 85l-99 105h-29
c70 -81 97 -108 107 -108c9 0 19 2 21 3zM393 18v34l-106 116v-38c0 -6 74 -82 106 -112zM393 -49v33l-106 117v-38zM393 -114v32l-106 117v-35zM393 -166v25l-106 113v-26zM377 -179l-106 110h-39l106 -110h39zM308 -179c-86 91 -106 112 -125 112c-5 0 -10 -2 -16 -5
l106 -107h35zM243 -179l-105 110h-33l103 -110h35zM180 -179l-107 110h-45l104 -110h48zM484 502c0 -66 -39 -111 -98 -111h-111l-8 8v207c7 7 18 10 33 10c134 0 184 -30 184 -114zM391 595c-2 0 -5 -1 -10 -4c17 -20 45 -48 83 -84c0 40 -40 88 -73 88zM447 492l-96 104
h-46l101 -104h41zM460 470h-46v-54c22 9 37 27 46 54zM393 426v43l-106 115v-45c0 -8 23 -31 106 -113zM381 408l-94 101v-41c0 -14 55 -64 71 -64c1 0 9 1 23 4zM310 410l-23 27v-27h23z" />
    <glyph glyph-name="Q" unicode="Q" horiz-adv-x="969" 
d="M918 -190c-15 -7 -23 -8 -25 -9h-253l-77 76c-10 -3 -27 -5 -51 -5c-227 0 -512 291 -512 522c0 276 237 406 417 406c230 0 499 -286 499 -527c0 -101 -39 -193 -116 -278zM875 415c-11 49 -48 105 -111 166c5 -12 13 -30 24 -53c3 -28 5 -31 87 -113zM899 339
c0 29 -12 43 -96 126l5 -52l88 -92c2 11 3 17 3 18zM899 285c0 8 -84 93 -92 100v-29c0 -10 30 -45 89 -104c2 18 3 29 3 33zM895 227l-92 97c-2 -8 -5 -20 -10 -36l93 -99c5 13 8 25 9 38zM881 167l-94 98c-2 -5 -5 -13 -10 -24l94 -101c3 6 6 15 10 27zM863 122l-95 99
c-3 -6 -8 -15 -13 -27l96 -97c2 3 6 12 12 25zM840 77l-97 104c-4 -7 -9 -17 -18 -29l99 -100c7 11 12 19 16 25zM810 36c-10 14 -86 92 -99 102l-21 -26l99 -101c5 6 11 15 21 25zM791 406c0 206 -179 378 -394 378c-200 0 -380 -172 -380 -376c0 -225 174 -384 390 -384
c24 0 48 2 72 6c5 -7 27 -39 65 -97c30 -2 55 -3 75 -3l163 3l-117 180c84 88 126 186 126 293zM886 -181c-75 91 -83 92 -108 92c-4 0 -7 2 -9 4c-1 -4 -3 -5 -10 -5c69 -77 86 -94 112 -94c3 0 8 1 15 3zM822 -182c-57 63 -89 94 -96 94h-29c56 -63 86 -94 91 -94h34z
M757 -181c-64 70 -89 93 -100 93h-30c73 -86 84 -96 113 -96c4 0 10 1 17 3zM687 -182l-92 95h-34c58 -74 83 -98 100 -98c12 2 19 3 26 3zM551 -105c-18 24 -43 62 -76 111c-8 -2 -23 -3 -42 -5c69 -74 105 -111 110 -111c3 0 5 2 8 5zM512 -110l-107 114h-35l107 -114h35z
M446 -104c-21 27 -55 64 -101 111c-4 3 -49 16 -58 15c112 -126 114 -126 159 -126zM562 398c0 -95 -62 -168 -146 -168c-91 0 -156 74 -156 174c0 89 70 162 154 162c85 0 148 -72 148 -168zM480 486c-51 57 -60 64 -76 64c-5 0 -11 -2 -17 -5c49 -57 56 -65 75 -65
c5 0 11 2 18 6zM430 475l-66 66l-23 -15l67 -69c1 3 4 6 11 9s11 6 11 9zM545 403c0 13 -1 26 -4 39c-20 15 -42 23 -65 23c-48 0 -97 -53 -97 -106c0 -56 31 -108 65 -108c11 0 62 32 70 45c21 33 31 69 31 107zM394 445l-69 71c-4 -6 -12 -13 -21 -22l75 -74
c6 11 11 19 15 25zM371 400l-75 76c-3 -6 -7 -15 -12 -27l76 -82c1 8 4 19 11 33zM388 268c-7 10 -14 23 -19 39c-14 48 -15 49 -91 121l-1 -45c13 -15 50 -53 111 -115z" />
    <glyph glyph-name="R" unicode="R" horiz-adv-x="903" 
d="M887 -192c-28 -5 -43 -7 -46 -7l-251 2c-134 155 -159 188 -187 246c-3 -3 -5 -83 -7 -242c-13 -4 -18 -5 -21 -6h-252l-123 147l5 849l12 4h470c154 0 360 -219 360 -377c0 -116 -69 -220 -175 -263zM787 572l-57 61l55 -62zM826 470c-5 45 -21 66 -83 117
c0 -27 9 -41 83 -117zM831 416c0 23 -6 30 -74 102l-5 -44c0 -4 25 -32 74 -85c3 14 5 23 5 27zM821 364l-73 83c-7 -12 -10 -21 -10 -27c0 -17 5 -22 71 -93c2 10 6 22 12 37zM800 308c-25 34 -50 60 -73 79l-17 -32l73 -80zM771 259c-44 51 -68 76 -72 76
c-6 0 -13 -8 -20 -23l71 -77c7 6 14 14 21 24zM737 222l-75 78l-24 -23l68 -76zM689 193l-66 73c-21 -9 -26 -12 -28 -18c9 -7 16 -15 22 -24c27 -39 33 -45 44 -45c8 0 17 5 28 14zM735 -43l-181 291c121 88 177 138 177 258c0 233 -191 288 -427 288
c-18 0 -64 -2 -283 -10l-4 -827h242c0 135 1 222 4 259c12 3 16 4 19 4l34 -3l163 -260h256zM847 -180c-23 31 -55 70 -95 115c-3 2 -7 3 -14 3h-38l98 -118h49zM772 -180c-63 79 -98 118 -107 118c-5 0 -15 -1 -22 -3c-3 0 -6 1 -9 3l98 -118h40zM708 -179
c-77 90 -104 117 -119 117c-3 0 -10 -1 -21 -3l97 -117c20 2 26 3 43 3zM363 103c-57 90 -62 97 -71 97c-2 0 -6 -1 -12 -3zM642 -181l-100 119h-41c84 -109 97 -122 125 -122c5 0 11 1 16 3zM381 12v39l-101 120v-42zM381 -70v50l-101 117v-54c0 -8 34 -46 101 -113z
M381 -167v63l-101 117v-61zM362 -180c-7 12 -92 112 -98 115h-34c22 -25 54 -63 97 -114zM304 -180c-75 92 -101 119 -115 119c-11 0 -21 -1 -31 -4l103 -115h43zM235 -180l-105 118h-39l100 -118h44zM167 -180l-102 118c-13 2 -18 3 -24 3c-3 0 -6 -2 -9 -6l99 -115h36z
M483 493c0 -54 -43 -98 -94 -98h-123v191c0 3 4 5 11 5h78c85 0 128 -33 128 -98zM463 496c0 40 -35 76 -79 76zM452 475l-97 97h-55c91 -94 94 -97 152 -97zM455 457h-49v-40c20 7 36 20 49 40zM384 427v37l-101 96v-55l98 -89c0 2 0 3 3 11zM347 412c-10 16 -15 21 -64 67
v-67h64z" />
    <glyph glyph-name="S" unicode="S" horiz-adv-x="827" 
d="M774 113c0 -224 -175 -312 -432 -312c-193 0 -209 22 -342 205c19 41 50 102 91 183c67 -35 142 -52 224 -52c4 0 20 2 49 6c-152 35 -170 44 -268 199c-49 78 -74 138 -74 179c0 160 137 280 319 280c206 0 303 -48 407 -200c-19 -43 -48 -106 -89 -191
c-49 27 -87 40 -114 40l-3 -1c155 -113 232 -225 232 -336zM732 603l-76 93c-7 -18 -15 -38 -15 -39c0 -8 7 -18 71 -96zM702 539c0 3 -25 35 -75 98c-2 -8 -7 -18 -14 -33l75 -96c9 19 14 30 14 31zM677 491l-75 92c-9 -11 -13 -22 -13 -33c0 -19 9 -30 71 -98
c3 3 9 16 17 39zM646 437l-69 87c-30 33 -61 50 -92 50c25 -33 59 -71 100 -115c14 -4 44 -15 61 -22zM551 470c-97 114 -98 114 -144 114c90 -106 100 -117 127 -117c5 0 11 1 17 3zM729 226c-3 12 -7 17 -48 64c0 -10 13 -28 48 -64zM468 480c-52 72 -85 108 -100 108
c-3 0 -10 -2 -22 -7c76 -91 86 -103 109 -103c5 0 9 1 13 2zM696 239h-6c0 -40 1 -41 63 -103c0 36 0 37 -57 103zM402 487c-33 39 -59 68 -79 87c-9 -13 -13 -20 -13 -22c0 -14 62 -67 78 -67c2 0 10 1 14 2zM757 83c0 20 -8 30 -66 94c-6 -13 -9 -21 -9 -22
c0 -19 5 -25 68 -95c5 13 7 20 7 23zM325 505l-14 17l-2 -1l14 -17zM743 39l-69 81c-1 -5 -4 -14 -8 -25l72 -81c2 5 3 14 5 25zM670 213c0 157 -70 204 -283 257c-66 16 -99 41 -99 74c0 41 30 62 89 62c72 0 137 -15 194 -45l70 149c-85 49 -179 74 -283 74
c-168 0 -315 -89 -315 -254c0 -91 34 -157 101 -200c27 -17 90 -39 189 -67c67 -19 101 -46 101 -79c0 -43 -37 -64 -110 -64c-86 0 -162 17 -228 50c-60 -114 -72 -143 -72 -160c89 -40 190 -60 303 -60c209 0 343 102 343 263zM728 -6l-75 85c-7 -10 -12 -20 -16 -30
l77 -84c7 10 11 20 14 29zM701 -50l-79 87l-19 -22l81 -91c5 6 11 15 17 26zM415 190c0 34 -31 51 -94 51l76 -83c12 3 18 13 18 32zM671 -90c-31 38 -60 69 -87 93c-5 -4 -13 -11 -22 -20l86 -93c5 5 12 11 23 20zM367 163c-70 84 -80 96 -125 96c67 -80 82 -98 111 -98
c5 0 9 1 14 2zM629 -121c-53 62 -84 97 -88 97c-3 -2 -8 -6 -21 -13c57 -65 86 -98 88 -98c5 0 12 5 21 14zM589 -142c-59 65 -91 97 -94 97c-1 -1 -10 -4 -27 -8l87 -101c7 3 19 7 34 12zM535 -159c-78 87 -92 101 -98 101c-11 0 -18 -2 -22 -7c21 -21 49 -55 86 -102h16
c4 0 10 3 18 8zM486 -172c-67 78 -96 108 -104 108c-6 0 -12 -1 -25 -3c28 -35 60 -72 95 -110c10 2 21 4 34 5zM429 -180c-87 109 -94 115 -118 115c-9 0 -17 -2 -22 -5c22 -24 55 -61 98 -110h42zM363 -180c-93 117 -99 117 -116 117h-30l101 -117h45zM292 -177
c-95 114 -108 127 -154 127c72 -85 112 -127 120 -127h34zM217 -168c-104 122 -132 148 -175 148c112 -143 113 -144 175 -148z" />
    <glyph glyph-name="T" unicode="T" horiz-adv-x="876" 
d="M833 434c-13 -4 -40 -6 -81 -6c-9 0 -40 0 -124 2l-7 -3l-4 -619c-2 -3 -95 -5 -279 -7c-21 20 -63 67 -126 141v487h-103c-25 25 -61 63 -107 116l-2 35v219h712l121 -144v-221zM816 606v45l-100 118v-51zM816 528v49l-101 112c1 -1 2 -4 2 -8c0 -1 -2 -22 -4 -33
c0 -6 16 -26 103 -120zM816 489c0 11 -34 52 -103 123v-42l103 -113v32zM796 449l-95 100h-28c-8 -2 -11 -3 -14 -3l90 -97h47zM724 446c-70 78 -95 103 -112 103c-3 0 -10 -1 -20 -3c62 -67 94 -100 97 -100h35zM657 446c-76 84 -94 103 -110 103c-6 0 -13 -1 -22 -3
c77 -90 91 -102 117 -102c5 0 10 1 15 2zM602 362v64l-104 121v-77c20 -17 26 -23 104 -108zM602 277v54l-107 115v-51zM602 206v42l-107 116c-1 0 -1 -12 -1 -37c0 -7 24 -33 108 -121zM602 135v42l-107 113v-37zM693 567v214c-447 0 -672 1 -675 4v-216h199l16 -16v-598
h243v-3c-1 0 -2 191 -2 340c0 160 2 264 7 275h212zM212 492v57l-51 -1zM602 62v41l-107 118v-40zM212 445v18c-61 68 -78 86 -93 86c-7 0 -15 -1 -23 -3c83 -101 84 -101 116 -101zM602 28c0 2 -36 42 -107 120v-36l107 -119v35zM158 446c-85 100 -86 101 -117 101h-16
c62 -68 95 -101 100 -101h33zM600 -77v41l-105 115v-41zM600 -164v55l-107 119l1 -61c23 -25 59 -63 106 -113zM587 -180c-82 96 -103 117 -116 117l-35 -2l104 -115h47zM513 -180c-63 77 -98 116 -106 116h-39l107 -116h38zM448 -180c-80 94 -105 119 -119 119
c-9 0 -17 -2 -24 -5l107 -114h36zM382 -180l-106 115h-39l106 -115h39z" />
    <glyph glyph-name="U" unicode="U" horiz-adv-x="945" 
d="M877 646l6 -312c0 -378 -118 -533 -418 -533c-150 0 -229 44 -349 188c-78 95 -116 170 -116 226l4 581l10 5h262c81 -85 108 -117 135 -157c-4 -313 -5 -359 -3 -456l4 -1c53 0 80 102 80 305c0 75 -2 122 -12 304l8 4l249 -1c41 -32 87 -83 140 -153zM860 635
c0 7 -66 84 -106 126v-46l105 -121c1 0 1 13 1 41zM857 520v40l-103 122v-42zM857 444v42l-105 125v-44zM857 369v44l-105 122v-45zM856 295v42l-104 122v-41zM856 219v45l-104 123v-48zM856 186c0 2 -5 9 -103 124l-3 -34c0 -10 75 -95 103 -121c2 18 3 28 3 31zM393 588
v50l-107 128v-49c0 -7 48 -64 107 -129zM849 121l-96 118l-7 -37l99 -116zM393 550c0 1 -36 44 -107 129v-33l107 -125v29zM840 62l-99 113l-8 -32l95 -111c2 6 6 16 12 30zM393 483c0 1 -36 45 -107 131l-3 -41c0 -5 34 -46 107 -129c2 23 3 36 3 39zM818 14l-93 108
c-2 -1 -8 -11 -17 -30l95 -109c4 6 9 16 15 31zM390 371v39l-107 125v-41zM789 -32l-95 109c-5 -10 -10 -19 -15 -26c20 -25 52 -59 96 -104zM735 780c-7 3 -44 5 -110 5h-124l-6 -537c0 -35 -56 -87 -95 -87c-78 0 -134 35 -134 84v536h-236l-6 4c-3 -7 -4 -134 -7 -458
c0 -213 65 -379 349 -379c205 0 361 119 363 284zM390 290v47l-107 125v-47zM755 -68l-93 107l-17 -23c1 -2 82 -97 95 -103c5 4 10 10 15 19zM391 255c0 6 -40 54 -108 128v-48l106 -121c-1 1 -2 4 -2 8c1 4 4 32 4 33zM722 -101c-61 71 -93 107 -94 107
c-2 -2 -10 -7 -25 -17l95 -105c5 3 13 8 24 15zM387 182l-104 121c0 -78 31 -121 104 -121zM679 -127c-71 82 -91 105 -98 105c-2 -2 -10 -6 -24 -13l94 -107c6 3 15 8 28 15zM632 -151c-80 93 -92 106 -96 106c-9 0 -19 -4 -29 -13l92 -103c13 5 24 8 33 10zM578 -165
l-94 107c-8 -1 -18 -5 -32 -9l95 -107c7 3 17 6 31 9zM520 -175c-61 71 -93 107 -97 107c-2 0 -2 0 -26 -4c13 -18 85 -106 94 -106c6 0 16 1 29 3zM463 -179c-78 88 -96 107 -106 107h-28l92 -107h42zM392 -175c-13 11 -27 27 -43 50c-36 49 -54 62 -97 62
c95 -110 99 -112 140 -112z" />
    <glyph glyph-name="V" unicode="V" horiz-adv-x="1010" 
d="M963 643l-238 -841h-390c-89 92 -101 104 -117 134c-15 30 -63 221 -218 864c19 1 119 3 147 3c71 0 108 -3 133 -6c117 -119 143 -160 185 -293c39 120 70 219 92 297h268c31 -35 77 -87 138 -158zM944 642l-113 131l-10 -40c23 -31 60 -74 111 -129c2 10 6 22 12 38z
M927 579c0 7 -38 49 -115 126l-9 -39l112 -125c8 25 12 37 12 38zM908 517l-113 129l-11 -42l110 -126c3 7 8 19 14 39zM889 450l-111 133c-2 -9 -6 -23 -11 -40c24 -29 62 -70 114 -123zM872 396l-111 127l-12 -45l112 -125zM854 330l-111 124c-1 -7 -3 -19 -7 -33
l109 -123c5 12 8 23 9 32zM839 275c-33 37 -69 79 -109 126c-3 -8 -7 -19 -11 -35l111 -124zM824 217l-110 126l-12 -40l109 -121zM435 540c0 59 -18 83 -145 221c5 -17 12 -42 19 -77zM805 157l-108 126c-7 -22 -11 -34 -11 -36c9 -9 46 -49 110 -120c2 7 5 17 9 30z
M452 462c0 29 -23 56 -133 181c0 -59 1 -61 129 -202c3 11 4 18 4 21zM790 98c0 6 -37 49 -110 128c-3 -7 -6 -19 -10 -34l110 -122c7 13 10 23 10 28zM441 419l-91 101c0 -40 10 -53 82 -138zM774 44l-109 126l-11 -41l109 -118c2 7 6 18 11 33zM812 781h-249
c-49 -177 -99 -356 -151 -536l-14 4c-30 119 -75 297 -136 534h-237c33 -160 50 -227 203 -829h358zM426 352c0 10 0 10 -49 63c17 -64 21 -73 41 -86c5 11 8 19 8 23zM755 -15l-107 122c-2 -7 -5 -18 -9 -33l107 -121c3 8 6 19 9 32zM412 300v8c0 3 -3 6 -9 9
c1 -5 2 -11 4 -20c2 0 4 1 5 3zM740 -70l-106 124l-11 -42l106 -121c2 9 6 22 11 39zM721 -132c-22 28 -58 68 -107 120l-11 -43l107 -120zM682 -182c-17 24 -96 117 -102 117c-3 0 -8 -2 -11 -3l-18 4c-3 0 -8 -2 -13 -5c4 -6 70 -87 101 -110c3 -2 8 -3 15 -3h28z
M612 -180l-100 112l-34 4c-3 0 -8 -2 -14 -5c18 -23 100 -113 106 -113zM539 -181c-80 97 -97 116 -134 116c-4 0 -8 -2 -12 -6c68 -73 104 -110 108 -110h38zM467 -181c-75 92 -99 117 -112 117c-20 0 -31 -2 -32 -6l100 -111h44zM397 -181c-84 105 -100 119 -129 119
c-6 0 -14 -2 -24 -5l96 -114h57z" />
    <glyph glyph-name="W" unicode="W" horiz-adv-x="1355" 
d="M1303 632c0 -21 -186 -734 -214 -831h-271c-65 71 -99 108 -102 113c-12 19 -29 67 -50 143c-20 -47 -27 -69 -83 -256h-276c-116 136 -125 148 -131 180c-63 313 -122 583 -176 812l4 8h271l130 -142c6 14 21 61 46 142h273l134 -151l44 149h269l132 -137v-30zM1288 654
l-108 120c-5 -14 -8 -26 -8 -35c0 -14 77 -96 105 -118c3 7 6 18 11 33zM1271 588c0 4 -16 24 -107 124l-11 -41l107 -120c8 22 10 34 11 37zM1255 527l-104 121c-7 -12 -11 -22 -11 -29c0 -11 70 -88 106 -126c2 7 6 18 9 34zM1240 470l-104 118c-2 -10 -6 -22 -12 -37
l106 -119zM1225 407l-106 120l-10 -36l106 -122zM1211 346l-107 121c-1 -7 -3 -19 -7 -33l105 -122zM1197 289l-107 121l-8 -38l104 -119c3 8 7 19 11 36zM852 625l-111 130c8 -83 20 -96 100 -176zM1182 230l-108 117c-1 -8 -3 -20 -7 -34l106 -116zM835 544
c0 13 -7 25 -59 74c21 -80 27 -92 51 -103c5 13 8 23 8 29zM1166 170l-105 121c-5 -17 -7 -26 -7 -29c0 -12 82 -107 106 -125c1 7 3 18 6 33zM818 479c0 16 -5 26 -14 30l11 -46c2 9 3 14 3 16zM1151 112l-104 119l-10 -37l107 -119zM1140 48l-108 121l-8 -35l104 -121
c2 9 6 21 12 35zM1121 -7l-105 118c-1 -7 -4 -18 -7 -31l106 -121c2 7 4 19 6 34zM1109 -66l-106 120l-7 -37l104 -119zM400 636l-105 124c8 -76 9 -77 94 -164c3 9 7 21 11 40zM1158 781h-247c-22 -98 -52 -223 -91 -376h-6c-23 66 -28 86 -103 376h-247
c-25 -87 -63 -209 -112 -366l-9 5l-76 362h-242c94 -456 129 -622 179 -829h249l124 440l11 8c10 -1 12 -8 126 -448h243zM1095 -126l-108 120l-8 -45c14 -27 30 -45 102 -120c3 10 7 25 14 45zM381 556c0 43 -61 87 -62 87c0 -33 17 -66 53 -107c6 11 9 17 9 20zM591 342
l-2 6h-2l1 -6h3zM614 245c-15 60 -19 69 -35 77c-7 -9 -10 -16 -10 -21c0 -12 4 -16 45 -56zM1060 -179c-23 30 -93 113 -109 113l-30 -1l96 -112h43zM368 514l-30 34l16 -76zM992 -179c-22 24 -53 61 -95 110l-24 2c-6 0 -12 -1 -18 -4l95 -108h42zM643 135
c-8 64 -17 73 -79 135c-2 -7 -6 -18 -11 -33zM925 -179c-92 113 -93 113 -117 113c-3 0 -9 -2 -16 -5l94 -108h39zM652 96l-103 118l-13 -40l106 -114zM862 -179l-96 111h-36c11 -17 42 -54 94 -111h38zM634 37l-103 116c-7 -22 -11 -34 -11 -37c0 -4 85 -96 105 -114z
M617 -23l-103 115c-1 -7 -4 -18 -8 -33l99 -117c2 9 6 21 12 35zM599 -80l-101 117l-9 -38l101 -113c2 7 6 18 9 34zM584 -137l-101 116l-10 -39l97 -112c4 7 8 20 14 35zM549 -179c-76 92 -97 115 -109 115c-8 0 -17 -2 -26 -7l95 -108h40zM483 -179l-101 112h-32l93 -112
h40zM422 -180c-78 89 -101 113 -106 113h-31c7 -14 8 -15 68 -85c17 -21 34 -31 49 -31c5 0 11 1 20 3zM354 -179c-19 27 -51 63 -95 110c-3 3 -11 5 -22 5c-5 0 -11 -2 -17 -5l94 -110h40z" />
    <glyph glyph-name="X" unicode="X" horiz-adv-x="1073" 
d="M1031 -192c-7 -5 -10 -6 -12 -7h-302c-62 65 -114 123 -156 174l-123 -171h-321c-88 96 -103 115 -117 143l292 423l-289 424l3 7h326l144 -158c12 15 19 24 111 157h315l120 -143c-28 -45 -120 -181 -276 -409zM1004 657l-104 119c-4 -7 -10 -17 -17 -30l103 -113
c4 5 10 13 18 24zM975 615l-106 115c-3 -6 -8 -15 -15 -27l104 -112zM944 572l-103 120c-3 -6 -9 -15 -16 -26l106 -115c5 6 9 13 13 21zM917 531l-105 117c-2 -5 -7 -13 -15 -24l105 -115c5 8 10 15 15 22zM888 493l-103 113c-4 -6 -10 -15 -17 -28l104 -114zM859 448
l-103 114c-5 -9 -10 -16 -15 -22c71 -85 85 -98 106 -114zM829 406c0 7 -70 85 -102 115c-4 -5 -9 -13 -15 -23c22 -27 57 -65 106 -114c7 11 11 19 11 22zM802 368l-102 113l-15 -29l101 -113c5 6 10 16 16 29zM464 629l-73 82l65 -97c3 7 6 12 8 15zM771 316
c0 13 -63 83 -102 118c-3 -7 -6 -14 -11 -22l102 -112c7 5 11 11 11 16zM746 282l-102 113c-4 -5 -9 -14 -14 -25l103 -108zM877 781h-283c-30 -43 -74 -107 -133 -193h-13l-130 195l-285 -2c210 -302 233 -335 277 -412l-277 -414h290l132 194h6l137 -195h271l-268 410z
M990 -177c-80 94 -103 114 -122 114c-3 0 -12 -2 -26 -7l94 -107h54zM912 -180l-95 113c-22 0 -33 -1 -46 -3l98 -110h43zM842 -180l-102 113h-39c22 -25 55 -63 98 -113h43zM772 -180l-103 113h-45l100 -113h48zM549 -9l-89 129l-26 -39l101 -110c5 9 9 15 14 20zM521 -45
l-99 108c-1 -1 -8 -11 -19 -32l98 -109c5 7 12 18 20 33zM487 -93l-97 109c-5 -6 -11 -16 -18 -29l97 -112c3 8 10 18 18 32zM455 -141l-99 108c-1 -1 -7 -10 -18 -28l99 -109c6 9 12 18 18 29zM416 -181l-101 114h-29c-3 0 -10 -1 -22 -3c95 -113 96 -113 152 -111z
M335 -181l-103 114h-45c38 -38 47 -48 76 -90c20 -24 24 -24 72 -24zM262 -179c-17 17 -33 34 -49 53c-41 53 -49 60 -98 60c-3 -1 -5 -1 -6 -2c67 -75 102 -112 105 -112zM180 -177c-87 102 -98 114 -127 114c-5 0 -13 -1 -24 -3c21 -25 53 -62 96 -111c6 0 18 -1 35 -3
c7 0 14 1 20 3z" />
    <glyph glyph-name="Y" unicode="Y" horiz-adv-x="1036" 
d="M997 657c-99 -187 -198 -378 -297 -575c0 -23 -2 -116 -5 -280h-273l-121 142v253c-43 119 -88 202 -301 589l4 15h287c1 -3 3 -5 6 -5c2 0 3 0 4 1l174 -192c21 44 56 109 103 194l284 -1zM976 651l-109 124l-16 -37l105 -124c3 4 9 16 20 37zM947 596l-108 126
c-4 -6 -8 -17 -14 -30l108 -125zM922 548l-108 125c-9 -16 -14 -26 -14 -31c0 -9 35 -51 106 -126zM894 495l-105 126l-14 -26l108 -122c3 5 6 13 11 22zM871 453l-107 123c-3 -5 -8 -14 -14 -25l108 -124c2 4 6 13 13 26zM846 407c0 5 -78 91 -109 122l-12 -29
c0 -3 36 -44 109 -123c8 18 12 28 12 30zM821 357c-23 29 -58 70 -106 123c-3 -5 -7 -14 -12 -26l101 -123c10 7 16 16 17 26zM796 310c0 4 -62 76 -105 124l-15 -29l106 -123c9 16 14 25 14 28zM465 587c-41 50 -87 102 -138 156c39 -81 81 -141 126 -181zM771 264
l-107 122c-3 -6 -7 -14 -11 -27l106 -120c3 5 7 14 12 25zM440 541l-18 21c5 -9 11 -18 15 -28c2 2 3 4 3 7zM747 218l-105 123l-12 -20c0 -7 35 -49 106 -126c3 5 7 12 11 23zM725 178l-104 120c-3 -7 -8 -17 -15 -30l103 -121zM700 126l-104 121l-17 -32l105 -118z
M846 779h-260c-99 -199 -142 -277 -153 -279l-148 282h-261c224 -406 258 -472 297 -578v-253h235v261c36 102 68 161 290 567zM680 1v69l-103 120v-66zM684 -56c0 29 -12 43 -107 150v-49l103 -125c2 15 3 23 4 24zM678 -171v63l-101 119c-3 -9 -4 -17 -4 -23
c0 -37 11 -54 105 -159zM659 -179l-99 110h-35l91 -110h43zM591 -177l-92 108h-43l89 -108h46zM524 -179l-94 110h-36l90 -110h40zM460 -179l-93 110h-35l91 -110h37z" />
    <glyph glyph-name="Z" unicode="Z" horiz-adv-x="955" 
d="M900 20c0 -115 -2 -188 -7 -219h-770l-123 136l263 495c-13 3 -28 4 -46 5c-50 -2 -79 -3 -94 -3c-9 0 -48 43 -119 129c0 174 1 203 7 237h755l124 -138c-37 -89 -236 -459 -259 -482c9 -1 58 -3 146 -5c82 -91 123 -142 123 -155zM869 659l-102 118
c-4 -9 -10 -23 -19 -41l103 -115c9 16 15 29 18 38zM840 603l-104 117l-13 -25c22 -27 57 -67 104 -119c3 5 7 14 13 27zM816 557l-104 118l-13 -25l103 -118c3 5 8 14 14 25zM793 514l-104 115c-3 -7 -8 -17 -15 -30l103 -116zM766 461c0 7 -69 86 -101 118
c-6 -6 -11 -15 -16 -28l103 -114zM740 418l-101 117l-16 -29c61 -74 81 -95 105 -113zM714 370l-101 118c-4 -6 -8 -17 -15 -32l102 -114zM688 325l-101 114l-13 -28l101 -114c2 7 6 16 13 28zM663 280l-102 113c-7 -18 -11 -26 -12 -29c0 -7 82 -97 102 -112
c3 6 7 15 12 28zM880 -18v44l-104 120v-45zM325 557h-16c0 -7 1 -8 11 -18c2 3 3 10 5 18zM638 233l-102 112l-15 -29l103 -112c4 6 8 16 14 29zM880 -92v44l-104 116v-51zM308 523c0 14 -30 36 -59 36c1 -9 37 -59 43 -59s16 17 16 23zM613 182l-102 116
c-9 -16 -14 -25 -14 -27c0 -6 63 -80 72 -89c4 -3 10 -5 19 -5c11 0 19 2 25 5zM758 -46v205h-328l-7 10l325 613h-723v-206h317l12 -10c-243 -430 -278 -491 -326 -616zM883 -153c0 34 -13 48 -106 147v-35c0 -10 26 -43 102 -131c3 9 4 16 4 19zM284 478
c0 1 -52 80 -79 80l-28 -5c53 -66 82 -99 89 -99c8 0 18 16 18 24zM553 176l-66 75c-9 -17 -13 -25 -13 -26c0 -23 37 -49 79 -49zM238 455c-69 87 -84 104 -103 104c-13 0 -22 -1 -29 -3c20 -22 49 -56 88 -101h44zM860 -180c-41 51 -102 117 -108 117c-19 0 -33 -2 -40 -6
l96 -111h52zM485 179l-21 26l-13 -26h34zM169 454c-19 23 -49 57 -88 102l-49 1l88 -103h49zM783 -180c-13 19 -87 107 -99 111h-35l96 -111h38zM719 -180c-12 18 -81 102 -95 111c-3 2 -10 3 -19 3h-24l96 -114h42zM654 -180c-98 117 -98 117 -132 117l-8 -6l98 -111h42z
M587 -180c-83 102 -99 117 -135 117c-2 0 -5 -2 -8 -6l103 -111h40zM520 -180c-33 37 -67 74 -99 112c-20 3 -31 4 -33 5h3c0 -1 -4 -2 -12 -4c68 -79 68 -80 90 -111zM453 -180c-21 26 -53 63 -97 110c-3 3 -9 4 -16 4h-28l98 -114h43zM387 -183l-103 116h-39
c22 -26 55 -65 101 -116h41zM319 -180l-101 111h-36l96 -111h41zM251 -180l-101 113h-37c11 -13 43 -51 96 -113h42zM185 -179l-106 112h-51l103 -116h44c4 0 7 1 10 4z" />
    <glyph glyph-name="a" unicode="a" horiz-adv-x="1024" 
d="M1001 -187l-12 -9h-281c-106 113 -123 133 -137 160h-105c-9 -35 -23 -86 -43 -153l-12 -10c-68 0 -78 0 -190 -3c-37 0 -69 3 -94 8c-10 9 -52 56 -127 139l227 855h416c41 -39 85 -85 132 -137c40 -83 74 -220 226 -850zM778 583c0 49 -16 67 -126 185
c12 -79 13 -80 126 -185zM677 660c0 -51 1 -52 125 -176c0 45 -1 48 -125 176zM832 372c0 55 -12 69 -128 185c0 -50 0 -51 128 -185zM859 269c0 48 -16 68 -127 182c0 -56 5 -64 127 -182zM890 163c0 44 -10 56 -130 179c0 -51 4 -56 130 -179zM916 58c0 50 -6 58 -130 180
c0 -43 11 -59 130 -180zM945 -48c0 52 -2 55 -131 188c0 -57 8 -68 131 -188zM975 -166c-12 73 -13 78 -72 134c-39 37 -59 57 -60 59c10 -71 10 -71 132 -193zM840 -44l-215 827l-386 -4c-34 -149 -46 -196 -216 -826h250c25 112 29 126 42 158l230 1c2 -1 5 -2 12 -6
c5 -15 19 -65 40 -150h243zM957 -177l-106 111h-29l-5 -4c88 -96 103 -109 127 -109c5 0 9 1 13 2zM891 -177c-93 110 -97 113 -123 113c-3 0 -9 -2 -18 -5c68 -72 104 -108 109 -108h32zM827 -177l-106 111h-27c-1 0 -7 -1 -12 -3c65 -73 101 -109 108 -109zM555 37v6
l-15 51h-20c-5 0 -10 -2 -15 -5zM755 -175c-86 92 -105 109 -112 109h-29l105 -109h36zM571 -17c-76 104 -91 111 -134 111l-3 -6l103 -105h34zM508 -19l-106 111h-50c67 -74 103 -111 110 -111h46zM444 -40c0 7 -40 49 -119 127l-5 -27l117 -124c0 8 0 9 7 24zM431 -88
l-118 127c-5 -17 -7 -27 -7 -30c0 -7 39 -48 118 -123c1 5 3 15 7 26zM418 -141l-118 130c-3 -9 -7 -22 -11 -40l119 -124c3 8 7 19 10 34zM381 -178c-69 75 -107 113 -114 113c-16 0 -25 -2 -28 -5c79 -90 99 -108 114 -108h28zM312 -177c-10 16 -90 104 -101 109
c-5 2 -13 3 -22 3c-7 0 -13 -1 -18 -4l108 -108h33zM248 -177c-94 107 -98 111 -116 111c-13 0 -26 -2 -29 -3l103 -108h42zM175 -177c-75 84 -103 111 -120 111c-6 0 -13 -1 -22 -3c67 -72 103 -108 107 -108h35zM511 264c-24 -3 -27 -3 -152 -3l-4 7c3 27 28 122 77 286
c11 -6 28 -69 79 -290zM453 425l-21 72c-3 -8 -5 -22 -9 -40zM479 319c-6 46 -27 83 -63 112c-6 -13 -9 -19 -9 -20c0 -23 5 -28 72 -92zM488 279l-88 94c-4 -12 -6 -23 -8 -31c44 -52 61 -67 74 -67c3 0 8 1 22 4zM420 281l-33 40c-3 -9 -7 -22 -11 -40h44z" />
    <glyph glyph-name="b" unicode="b" horiz-adv-x="914" 
d="M857 61c0 -139 -118 -260 -254 -260h-467l-132 148v848c14 3 21 4 23 4h502c121 0 290 -193 290 -329c0 -72 -16 -95 -85 -176c82 -77 123 -156 123 -235zM794 526c-11 51 -38 94 -81 131c10 -35 10 -36 10 -56c30 -32 53 -58 71 -75zM801 471c0 21 -6 31 -76 104
c-5 -19 -7 -30 -7 -31c0 -22 16 -37 79 -95c3 7 4 15 4 22zM791 421l-78 85c-3 -7 -7 -16 -11 -30l75 -82c8 5 14 26 14 27zM768 372c0 8 -54 65 -78 86l-16 -25l80 -85c9 13 14 21 14 24zM740 335l-79 86l-31 -28c19 -10 26 -17 91 -77c6 4 12 10 19 19zM829 120
c-4 27 -14 43 -84 133c0 -50 3 -55 84 -133zM758 168c-2 -8 -4 -21 -6 -40l85 -89c0 43 0 44 -79 129zM831 11l-84 92l-13 -37l87 -93c5 5 6 8 10 38zM812 -46l-90 95c-6 -13 -12 -21 -16 -28l92 -95zM736 175c0 90 -39 148 -139 215c87 83 106 109 106 199
c0 93 -77 193 -171 193h-511v-830h511c120 0 204 119 204 223zM784 -92l-91 98l-19 -21l92 -97c5 4 11 11 18 20zM748 -124l-92 98l-22 -16l94 -99c13 3 19 9 20 17zM710 -151l-96 101c-7 -1 -17 -6 -31 -14c61 -67 96 -100 105 -100c7 0 15 4 22 13zM657 -173
c-58 73 -94 109 -107 109c-2 0 -6 -1 -21 -5c-3 0 -5 1 -6 3l105 -114c6 2 16 4 29 7zM599 -181l-106 114h-42l110 -114h38zM526 -181l-97 114h-32c-2 0 -6 -1 -12 -3l109 -111h32zM356 -67h-27c-2 0 -4 0 -11 -3c100 -115 101 -115 146 -112zM395 -181l-108 114h-30
c-3 0 -8 -2 -11 -3l108 -111h41zM320 -181c-70 83 -102 115 -116 115c-11 0 -22 -1 -31 -4c73 -83 102 -111 115 -111h32zM249 -181c-41 51 -105 114 -118 114c-6 0 -15 -1 -27 -3c67 -76 99 -111 113 -111h32zM181 -181l-107 110h-37l107 -110h37zM453 544
c0 -57 -36 -85 -109 -85c-6 0 -32 1 -77 3v156c6 5 34 7 84 7c68 0 102 -27 102 -81zM485 205c0 -53 -35 -90 -87 -90h-129c-1 11 -5 94 -6 131c0 51 4 52 59 52c97 0 98 0 121 -14c32 -20 42 -40 42 -79zM435 538c0 47 -21 69 -68 69h-43c54 -64 65 -73 89 -73
c2 1 7 2 22 4zM429 518c-1 1 -1 1 -1 2c-10 -3 -14 -2 -16 -3c-1 0 -3 1 -5 3c0 -8 1 -17 3 -29c19 20 19 21 19 27zM388 484v33l-92 91h-10v-34c0 -9 82 -96 91 -96c7 0 11 2 11 6zM340 480l-54 62v-62h54zM469 200c-2 45 -30 80 -66 80h2c-2 -1 -6 -1 -13 -2zM448 190
c-76 86 -85 94 -108 94c-5 0 -13 -2 -26 -6c53 -59 83 -88 91 -88h43zM460 170h-52v-34c22 0 49 19 52 34zM388 172l-102 106l-4 -19c0 -30 22 -58 97 -124c2 0 3 5 9 37zM348 135l-63 69v-69h63z" />
    <glyph glyph-name="c" unicode="c" horiz-adv-x="819" 
d="M759 381c-1 -3 -5 -17 -12 -43c-9 1 -21 12 -38 33c-55 69 -91 93 -149 93c-84 0 -152 -71 -152 -160c0 -43 12 -81 37 -113c67 -6 99 6 150 57c15 15 25 23 30 24c30 -31 74 -77 131 -139v-266c-71 -44 -152 -66 -244 -66c-232 0 -512 316 -512 567
c0 247 179 433 416 433c156 0 213 -32 341 -181zM741 611l-103 114c0 -34 3 -38 102 -140zM745 534c0 12 -3 21 -9 28c-22 22 -55 56 -98 102v-36l102 -111c4 10 4 14 5 17zM741 447v37l-103 113v-41zM741 367v48l-104 109v-47zM605 473c-15 22 -40 41 -77 57
c40 -57 56 -57 77 -57zM549 481c-49 55 -60 64 -78 64c-3 0 -9 -1 -18 -3c33 -45 58 -68 74 -68c4 0 11 2 22 7zM495 468c-40 46 -63 69 -70 69c-14 0 -23 -3 -26 -10c40 -45 68 -72 73 -72c7 0 14 4 23 13zM453 444l-77 76c-3 -3 -12 -9 -25 -20l77 -79zM741 82v39
l-104 113v-17c0 -31 0 -32 104 -135zM414 404l-80 86l-16 -26c13 -16 41 -45 84 -88zM741 18v35l-104 111c-4 -42 -4 -47 104 -146zM395 354l-89 95c-3 -7 -7 -17 -13 -30l95 -102zM741 -47v32l-103 113v-35zM619 739c-59 28 -128 42 -207 42c-229 0 -394 -176 -394 -418
c0 -243 169 -410 413 -410c69 0 131 14 185 43v247c-39 -48 -90 -72 -155 -72c-104 0 -196 90 -196 193c0 110 88 199 197 199c63 0 114 -22 154 -65zM402 229c0 51 -13 66 -115 165l-3 -35c0 -4 7 -12 118 -130zM741 -110v34l-103 110v-31c0 -8 77 -87 103 -113zM728 -128
c-63 71 -98 106 -103 106c-3 0 -12 -5 -29 -15c72 -81 83 -92 104 -104zM675 -153c-59 72 -92 108 -99 108c-1 0 -13 -2 -34 -8l101 -110c7 3 18 6 32 10zM622 -168c-69 73 -104 109 -105 109c-3 0 -14 -2 -33 -7l104 -109c11 1 23 4 34 7zM564 -179
c-91 111 -97 112 -144 109l106 -112h30c2 0 5 1 8 3zM496 -181c-84 96 -103 118 -154 118c101 -118 102 -118 154 -118zM413 -168c-6 9 -97 107 -104 111c-35 9 -40 12 -89 36c95 -106 146 -145 193 -147z" />
    <glyph glyph-name="d" unicode="d" horiz-adv-x="925" 
d="M874 264c0 -253 -185 -463 -409 -463h-320l-142 153v843l8 4l459 -4c79 0 250 -145 345 -288c39 -58 59 -140 59 -245zM857 344c0 28 -17 45 -90 118c-2 -9 -3 -15 -3 -18c0 -29 10 -43 90 -117c2 8 3 14 3 17zM859 265c0 27 -9 40 -83 116c-5 -6 -7 -15 -7 -27
c0 -28 9 -40 86 -110c3 13 4 20 4 21zM854 216l-83 89c-4 -12 -6 -20 -6 -25c0 -25 8 -36 82 -104c0 9 2 23 7 40zM841 149l-79 89c-7 -11 -11 -20 -11 -27c0 -11 66 -76 84 -90c2 5 4 14 6 28zM824 95c0 1 -28 32 -83 92c-3 -7 -8 -17 -13 -32l84 -90c8 17 12 27 12 30z
M802 44l-87 93c-3 -7 -9 -17 -16 -30l85 -87c5 0 11 8 18 24zM753 376c0 205 -149 407 -318 407h-411c-4 -92 -5 -134 -5 -151v-678h365c213 0 369 181 369 422zM776 -2l-90 95l-20 -26l93 -96c7 12 12 21 17 27zM744 -43l-92 95c-8 -9 -14 -16 -19 -21l92 -93
c7 1 14 7 19 19zM710 -79c-38 46 -69 79 -94 98l-21 -19l97 -97zM671 -112c-7 14 -88 103 -92 103c-24 -14 -28 -16 -29 -16c59 -66 93 -99 102 -99c5 0 11 4 19 12zM627 -137c-18 26 -88 103 -97 103c-2 -1 -11 -6 -27 -13l100 -101c5 3 13 6 24 11zM580 -157
c-64 69 -98 104 -102 104c-7 0 -18 -3 -31 -8l101 -106c14 3 25 7 32 10zM528 -170c-82 88 -102 107 -112 107c-9 0 -19 -2 -30 -5c72 -75 108 -109 115 -109c10 0 19 2 27 7zM464 -177c-74 84 -102 112 -116 112c-2 0 -2 0 -28 -4l109 -109zM398 -179
c-90 96 -108 113 -118 113h-28c25 -30 58 -67 98 -109c4 -3 12 -4 24 -4h24zM331 -180l-113 115h-38l108 -115h43zM257 -179c-100 114 -101 114 -127 114h-17l108 -114h36zM194 -180l-112 112h-40c99 -105 110 -115 136 -115c9 3 12 3 16 3zM504 367
c0 -107 -76 -182 -184 -182c-45 0 -55 2 -55 28l7 340h57c97 0 175 -82 175 -186zM452 424c-94 108 -96 108 -140 108l94 -108h46zM392 366v45l-103 110v-27c0 -25 4 -29 103 -128zM485 385c-19 13 -38 20 -57 20c-2 0 -3 0 -14 -2v-175c47 36 70 88 71 157zM392 288
c0 51 0 51 -59 110c-16 15 -31 32 -44 49v-50zM289 369v-45l102 -108c0 54 0 55 -102 153zM369 212l-82 83v-41c0 -2 28 -43 54 -48c13 0 23 2 28 6zM304 206l-15 17v-17h15z" />
    <glyph glyph-name="e" unicode="e" horiz-adv-x="778" 
d="M713 32l-5 -231h-579c-27 25 -70 73 -129 146v853h592l121 -134v-222c-5 -3 -14 -5 -27 -5c-12 0 -24 1 -69 5c-4 -1 -4 -1 -14 -8l84 -92v-179c1 -1 2 -4 2 -10l-2 -31h-53zM697 627v37l-102 107c0 -38 12 -54 102 -144zM697 564c0 36 -7 45 -99 137l-3 -28
c0 -11 68 -81 102 -109zM595 639v-53l104 -112c0 61 0 61 -104 165zM685 458c-91 109 -103 115 -119 115h-37l110 -115h46zM612 459c-95 98 -112 115 -123 115c-18 -4 -27 -5 -30 -5c72 -82 80 -88 105 -96c9 -3 16 -7 19 -14h29zM667 304v33l-101 111v-37
c0 -4 34 -40 101 -107zM519 480c-76 86 -87 94 -121 94c-5 0 -10 -2 -17 -5c74 -82 84 -93 112 -93c1 1 10 2 26 4zM566 383v-37c0 -5 34 -41 101 -109c2 41 1 42 -101 146zM441 480c-17 15 -32 30 -46 47c-37 45 -38 45 -96 45l86 -92h56zM668 195c0 12 -74 95 -102 120
v-33l102 -112v25zM353 480l-72 80v-46c0 -12 2 -23 5 -34h67zM661 147c-23 28 -58 66 -106 115l-15 3h-26l114 -118h33zM577 167c-73 85 -92 101 -120 101c-4 0 -8 -2 -12 -5c63 -64 96 -96 98 -96h34zM697 -13v37l-104 112v-40zM576 665l-4 118h-549l-4 -828h553v192h-313
v86c0 11 3 29 8 52h276v173c-119 -5 -140 -6 -169 -6c-77 0 -114 8 -114 24l1 66c1 33 5 50 10 50l299 -1c4 20 6 35 6 74zM511 167l-95 99h-40l94 -99h41zM697 -49c0 10 -91 104 -104 116v-46l103 -111c1 0 1 13 1 41zM441 168c-80 88 -96 100 -130 100c-3 0 -12 -1 -16 -3
c81 -94 90 -101 119 -101c1 1 10 2 27 4zM697 -115c-24 21 -58 56 -104 105v-41l104 -112v48zM358 167l-75 83v-83h75zM679 -180c-85 96 -105 117 -126 117c-2 0 -10 -2 -23 -5l106 -112h43zM608 -179c-16 16 -40 40 -70 73c-31 39 -32 41 -46 41l-31 -1l101 -113h46z
M536 -180l-106 115h-40l108 -115h38zM468 -181l-109 116h-42l112 -116h39zM397 -180l-108 115h-45l109 -115h44zM324 -181l-109 116h-40l112 -116h37zM253 -180l-109 115h-39l109 -115h39zM186 -179l-112 114h-42l104 -114h50z" />
    <glyph glyph-name="f" unicode="f" horiz-adv-x="752" 
d="M707 444c-20 -2 -38 -3 -54 -3c-18 0 -34 1 -48 4l-10 -6l81 -93v-214l-8 -6h-256l-8 -11l-4 -311h-278l-122 134v863h590l117 -130v-227zM688 628v39l-95 105v-39zM688 557v37l-95 108c-2 -8 -3 -13 -3 -16c0 -27 13 -44 98 -129zM688 482v40l-95 111
c-2 -15 -3 -23 -4 -24c0 -29 11 -41 99 -127zM680 459c-84 96 -103 118 -141 118c-1 0 -7 -1 -20 -4c69 -78 104 -114 111 -114h50zM593 460l-104 113h-42c67 -79 83 -96 89 -96c4 0 8 1 15 3c5 0 5 0 33 -24c2 0 5 1 9 4zM659 301v38l-98 108c0 -44 0 -45 98 -146zM505 479
l-85 94h-43l82 -94h46zM659 236v33l-98 109v-32c0 -5 21 -29 98 -110zM434 478c-19 21 -47 51 -83 93l-55 2c17 -13 31 -28 42 -43c28 -39 51 -58 70 -58h-2c0 1 10 3 28 6zM659 165v38l-98 110v-42zM355 478c-11 17 -18 24 -74 83v-83h74zM646 146l-109 119h-41l105 -119
h45zM576 146l-108 121h-40c25 -34 61 -74 108 -121h40zM571 592v189c-46 2 -382 10 -391 10c-63 0 -117 -2 -163 -7v-831h240l4 334h280v172h-279c-3 35 -3 55 -3 60c0 10 2 34 6 73h306zM509 146l-111 119h-41l109 -119h43zM436 146l-109 121h-37l112 -121h34zM386 119
c0 15 -87 115 -109 130v-44l108 -122c1 0 1 12 1 36zM277 171v-44l108 -119c3 42 3 43 -108 163zM384 -74v50l-107 117v-49zM387 -142c0 21 -6 40 -18 56c-50 50 -70 73 -89 98v-63c0 -6 79 -91 104 -114c2 11 3 18 3 23zM367 -180c-98 114 -98 114 -136 114l104 -114h32z
M305 -179c-78 93 -98 114 -111 114c-11 0 -19 -2 -26 -6c67 -72 103 -108 108 -108h29zM244 -180c-76 90 -99 114 -108 114h-36l102 -114h42zM172 -181c-81 95 -102 115 -114 115c-1 -1 -11 -2 -29 -4c78 -90 97 -111 114 -111h29z" />
    <glyph glyph-name="g" unicode="g" horiz-adv-x="946" 
d="M890 279l-4 -371c-86 -71 -201 -107 -345 -107c-15 0 -66 6 -154 17c-176 22 -387 357 -387 553c0 244 182 430 419 430c174 0 303 -81 434 -272l-103 -84h20l115 -121c3 -27 4 -42 5 -45zM832 533l-80 92c-7 -6 -16 -15 -27 -28c49 -57 75 -85 78 -85c4 0 5 0 29 21z
M787 496l-79 89c-22 -13 -23 -14 -23 -21l79 -85c5 4 13 10 23 17zM747 468l-79 86l-28 -21l79 -89zM872 251v57l-95 107v-61zM694 447l-68 75c-32 -28 -33 -29 -33 -30c11 -4 23 -19 34 -45h67zM873 191c0 18 -6 34 -17 48c-55 54 -62 61 -79 84v-52c0 -2 81 -87 94 -99
c1 7 2 13 2 19zM511 526c-44 57 -57 69 -74 69c-1 0 -2 0 -19 -2c7 -3 19 -17 36 -41c15 -20 29 -30 43 -30c9 3 12 4 14 4zM872 134c0 6 -16 24 -97 108c0 -47 2 -49 50 -97c15 -15 29 -32 44 -50c2 23 3 36 3 39zM463 516l-70 74c-6 -2 -15 -7 -27 -15l73 -78zM873 32
c0 28 -8 39 -95 135c-2 -10 -3 -17 -3 -21c0 -31 12 -45 96 -131c1 5 2 11 2 17zM422 483l-75 83c-8 -8 -14 -16 -17 -23l78 -81c4 4 8 12 14 21zM872 -26c0 10 -31 47 -96 112c-2 -13 -3 -20 -3 -21c0 -35 11 -50 96 -138zM607 447c-15 31 -63 61 -97 61
c-68 0 -118 -91 -118 -188c0 -78 47 -175 98 -175h26v23c-86 90 -94 99 -94 125v95c-1 -2 -1 -6 -1 -13c1 39 6 63 15 72h171zM396 446l-81 85c-4 -6 -9 -16 -16 -29l84 -97zM858 -92l-95 108c-4 -3 -11 -8 -19 -16l94 -102c5 3 11 6 20 10zM756 36v389h-315v-138h26
c29 0 52 -3 67 -9v-147c-10 -3 -14 -4 -16 -5c-177 0 -265 86 -265 258c0 131 74 229 175 229c66 0 121 -31 166 -93l145 117c-71 89 -193 146 -318 146c-231 0 -403 -178 -403 -417c0 -253 176 -419 440 -419c102 0 201 30 298 89zM377 386l-85 97c-3 -7 -7 -17 -11 -32
l92 -101c0 3 1 15 4 36zM516 196v70h-61zM818 -113c-55 70 -85 105 -90 105c-2 0 -11 -4 -26 -12c61 -68 93 -102 96 -102c3 1 8 3 20 9zM275 424c-2 -10 -3 -16 -3 -19c0 -25 0 -30 103 -136c5 57 4 57 -100 155zM775 -130l-90 101c-6 -1 -15 -5 -28 -10
c61 -68 92 -102 94 -102c1 1 9 5 24 11zM438 149c-11 10 -12 12 -65 97c-23 25 -56 62 -99 111c0 -52 0 -52 72 -134c33 -37 56 -61 68 -70c6 0 13 -2 24 -4zM729 -148l-92 103c-7 -3 -17 -5 -31 -8c20 -23 50 -57 91 -102c6 1 17 3 32 7zM677 -163c-61 69 -94 104 -100 104
c-1 0 -10 -1 -26 -5c63 -69 96 -104 100 -104zM623 -173c-78 89 -94 106 -100 106c-5 -1 -23 -4 -26 -4c20 -29 76 -89 93 -107c6 2 18 3 33 5zM565 -181l-98 110h-32c21 -25 52 -61 95 -109zM502 -179c-21 28 -52 64 -93 107c-4 3 -13 5 -26 5h-16c76 -94 94 -112 108 -112
h27zM432 -170c-18 18 -43 46 -75 84c-8 19 -12 23 -40 27c-14 2 -24 5 -29 8c92 -108 104 -121 131 -121c4 0 8 1 13 2z" />
    <glyph glyph-name="h" unicode="h" horiz-adv-x="929" 
d="M859 -199h-271l-120 141v185c-8 4 -9 4 -56 4c-6 -64 -6 -67 -6 -324l-11 -6h-269l-123 144v849c15 5 23 7 25 7l244 -1c31 -26 47 -43 136 -149v-168h30c12 1 22 3 30 7v307l4 3h253l134 -157v-842zM843 587c0 54 -9 66 -104 169c-2 -10 -3 -17 -3 -22
c0 -36 12 -51 107 -147zM844 546c0 7 -50 67 -106 127v-46l105 -121c1 0 1 13 1 40zM843 426v42c0 7 -35 49 -105 125v-44zM844 388c0 8 -15 27 -106 128l-3 -41c7 -10 43 -51 105 -123c3 19 4 31 4 36zM844 315c0 3 -35 45 -106 125v-42l105 -117c1 0 1 11 1 34zM843 200
c0 53 -6 60 -105 168v-50zM389 597v49l-107 126v-53zM738 290v-42l106 -120v12c0 36 -1 37 -106 150zM389 522v44l-107 123v-50c0 -8 80 -94 107 -117zM843 48v48l-110 124c-3 -56 -2 -56 110 -172zM389 489l-107 120v-48c0 -1 21 -26 64 -75l23 -1c6 0 13 1 20 4zM841 -24
v38c0 7 -34 49 -103 124v-44zM319 486l-37 45v-45h37zM843 -95v35l-105 123v-39zM717 -45v826h-231v-307l-8 -10h-215v318h-158c-27 0 -55 -1 -84 -4v-822h241v321l8 8h207l9 -8v-322h231zM467 262c-4 3 -8 4 -11 4h-10c0 -9 6 -18 18 -28c0 6 1 14 3 24zM841 -167v41
l-106 122v-40c0 -6 17 -26 106 -123zM467 182c0 30 -40 78 -49 80c-8 2 -18 3 -30 3c-7 -2 -11 -3 -13 -3l92 -104v24zM825 -180c-75 94 -94 115 -122 115c-7 0 -15 -1 -25 -4l97 -111h50zM448 148c-77 97 -96 118 -115 118c-11 0 -21 -1 -30 -4c23 -25 56 -63 100 -114h45z
M747 -180l-95 114h-38c21 -26 55 -63 100 -114h33zM392 117c0 11 -37 57 -110 137v-56l107 -123c0 8 1 22 3 42zM687 -181c-35 52 -92 116 -109 116c-9 0 -15 -2 -18 -5l100 -111h27zM630 -180c-64 79 -97 115 -105 115h-24l94 -115h35zM389 -3v46l-107 122v-45zM389 -89v54
l-109 122v-52zM389 -173v52l-109 122c0 -58 6 -66 109 -174zM365 -180c-89 112 -99 115 -135 115c4 -6 85 -116 111 -116zM303 -179c-90 100 -103 114 -112 114h-27l99 -114h40zM238 -180c-22 28 -55 66 -100 113c-3 2 -10 3 -19 3h-24l101 -116h42zM172 -180l-104 116h-36
l98 -116h42z" />
    <glyph glyph-name="i" unicode="i" horiz-adv-x="481" 
d="M406 -199h-270l-136 148l4 852h273c13 0 58 -47 133 -140zM391 620v33l-107 121c0 -47 0 -47 107 -154zM391 551v33l-107 118v-38zM391 474v45l-109 117c-1 0 -1 -12 -1 -38c0 -4 13 -19 110 -124zM391 408v37l-109 119c-1 0 -1 -11 -1 -34c0 -6 25 -33 110 -122z
M391 338v39l-109 117v-35zM394 301c0 3 -37 45 -110 124l-3 -34c0 -5 21 -27 110 -119c2 16 3 26 3 29zM282 356c-3 -46 -2 -46 112 -155c0 39 0 40 -112 155zM282 286v-43c0 -7 91 -98 112 -116c0 54 -1 55 -112 159zM267 433c-1 3 -2 8 -7 20c3 5 5 15 5 30v299h-247v-820
l245 -5zM394 51v43c-25 26 -62 64 -112 115v-38c0 -6 35 -43 112 -120zM394 -25v42l-112 121v-46zM394 -94v36l-110 119v-39zM394 -167v37l-110 121v-34zM377 -181c-90 99 -114 122 -126 122c-3 0 -8 -1 -15 -3c86 -95 113 -121 122 -121c17 2 18 2 19 2zM322 -181
c-87 99 -111 121 -129 121c-6 0 -12 -2 -18 -5l115 -116h32zM259 -181c-92 99 -115 120 -127 120c-1 0 -11 -1 -31 -4l117 -116h41zM187 -181c-110 120 -111 120 -139 120c-9 0 -14 -1 -17 -2l114 -118h42z" />
    <glyph glyph-name="j" unicode="j" horiz-adv-x="652" 
d="M587 55c0 -141 -175 -258 -367 -258c-31 0 -71 25 -120 76c-2 3 -35 42 -99 118l-1 229l7 9c18 -11 43 -17 74 -17c64 0 96 23 96 70v512l6 7h271l133 -145v-601zM569 621v30l-108 114v-30zM569 555v31c0 8 -36 47 -108 118v-35zM569 483v40l-108 114v-38zM461 564
l-1 -22c0 -20 2 -23 110 -123c0 38 0 40 -109 145zM572 347c0 41 -12 56 -111 149v-33zM571 316l-110 113v-40c0 -9 75 -84 110 -112v39zM572 201c-2 3 -3 17 -3 41l-108 114v-41c0 -5 37 -43 111 -114zM569 131v42c-23 26 -59 63 -108 112v-40zM569 102l-108 112
c0 -33 3 -47 17 -63c69 -66 73 -70 87 -87l-2 25c0 4 2 8 6 13zM438 155v627h-241v-500c0 -32 -15 -90 -109 -90l-71 12v-170v2c1 -4 2 -21 4 -50c49 -20 96 -30 141 -30c150 0 276 88 276 199zM560 37l-100 107c-3 -8 -6 -19 -10 -32l102 -105zM544 -15l-98 106l-17 -31
c21 -24 56 -57 103 -100zM515 -59l-99 105l-19 -23l103 -102c5 5 10 11 15 20zM482 -95l-97 106c-11 -6 -20 -13 -29 -22l105 -103zM440 -125c-72 82 -89 100 -107 100c-3 0 -9 -4 -18 -11l101 -103c7 2 15 7 24 14zM396 -150c-63 70 -99 105 -107 105c-5 0 -13 -3 -23 -10
c64 -70 101 -105 111 -105c7 0 13 3 19 10zM344 -168c-42 52 -98 110 -106 110c-1 -1 -11 -3 -29 -7c96 -99 106 -109 110 -109zM290 -178c-93 114 -94 114 -151 114c69 -76 106 -114 111 -114h40zM216 -178c-111 120 -122 131 -160 131c99 -122 109 -131 136 -131h24z" />
    <glyph glyph-name="k" unicode="k" horiz-adv-x="971" 
d="M923 630l-239 -415l234 -411l-6 -3h-339c-132 145 -151 165 -170 214l-4 -213h-268l-128 142v854l260 1l127 -132c17 31 44 76 83 135h243c32 0 58 -10 78 -29c43 -48 86 -96 129 -143zM903 627c-41 43 -87 91 -138 145c-4 -6 -9 -16 -15 -31l137 -142zM875 580l-138 146
l-15 -29l137 -146zM848 532l-138 147l-14 -26l138 -147c5 7 9 16 14 26zM823 487l-140 146c-3 -6 -8 -16 -16 -27c41 -48 89 -96 142 -145zM795 440l-138 148l-15 -28l139 -145c3 5 8 14 14 25zM768 397c-83 93 -103 114 -139 145l-12 -23c49 -60 95 -109 139 -147zM743 350
l-136 148c-3 -7 -8 -17 -15 -30l138 -143c3 6 7 14 13 25zM380 651l-105 114v-54c0 -8 38 -49 86 -94c5 11 12 23 19 34zM716 307l-136 145l-15 -28c92 -103 105 -117 137 -143c7 9 11 18 14 26zM349 599l-74 80c-4 -9 -6 -16 -6 -19c0 -22 22 -51 67 -86zM688 264l-134 142
c-5 -7 -11 -17 -19 -31c29 -33 74 -82 136 -145c7 12 13 23 17 34zM321 554c-3 4 -18 22 -46 54c-1 -25 -2 -39 -3 -41v2c0 -8 24 -35 36 -43c9 16 13 25 13 28zM297 509c-7 10 -15 17 -25 22l1 -63zM745 778l-269 -2c-46 -79 -117 -198 -212 -355l-8 4v353h-237v-823h236
v328l9 4c45 -72 110 -182 194 -330h285c-63 109 -140 246 -231 411zM865 -180c-83 96 -104 119 -121 119c-15 0 -28 -2 -39 -6c77 -86 106 -114 114 -114zM787 -181c-85 97 -105 117 -132 117c-3 0 -10 -1 -20 -3c72 -76 110 -114 115 -114h37zM717 -181
c-89 105 -104 121 -122 121c-15 0 -28 -2 -39 -7l109 -114h52zM336 129l-61 112l-6 -22c0 -23 13 -36 67 -90zM526 -64h-33c-3 0 -9 -1 -18 -3c71 -77 110 -115 115 -115c30 0 46 0 46 1zM383 36c0 10 -36 54 -108 132v-55l107 -115c1 0 1 13 1 38zM381 -82v48l-109 122
c-2 -16 -3 -24 -4 -25c0 -26 17 -46 113 -145zM381 -164v49l-106 121v-52zM370 -181c-93 101 -109 117 -117 117h-38c103 -107 113 -117 118 -117h37zM298 -181c-96 105 -110 120 -120 120c-3 0 -8 -1 -17 -3c99 -117 101 -117 137 -117zM243 -180c-74 82 -111 119 -117 119
s-15 -1 -30 -3c86 -94 114 -120 133 -120c5 0 9 1 14 4zM178 -181c-84 99 -104 121 -124 121c-12 0 -20 -2 -25 -7c71 -76 109 -114 114 -114h35z" />
    <glyph glyph-name="l" unicode="l" horiz-adv-x="708" 
d="M678 -167c0 -2 -2 -13 -6 -32h-545l-127 139v854l10 7h269l122 -137v-478c16 -3 35 -5 58 -5c21 0 70 2 84 3l16 -2c37 -37 75 -81 115 -133zM383 619v36l-99 113v-42zM383 549v38l-99 111v-47c21 -23 54 -57 99 -102zM383 474v43l-99 108c-3 -8 -5 -14 -5 -19
c0 -30 15 -46 104 -132zM383 395v45l-99 110v-48zM383 319v46l-99 109v-46zM658 18c0 29 -12 43 -97 134c0 -54 0 -54 46 -100c17 -16 33 -34 48 -53c2 9 3 16 3 19zM383 246v39l-101 113c0 -51 0 -51 101 -152zM539 -42v208c-103 -4 -147 -5 -171 -5c-42 0 -77 3 -105 9
v611h-243v-827h509c3 1 3 1 10 4zM563 70v-48l96 -101c0 51 0 53 -96 149zM383 186v32l-99 107c-3 -14 -4 -19 -5 -22c0 -27 17 -44 89 -115c3 0 8 -1 15 -2zM344 187l-60 64v-64h60zM662 -143c0 32 -12 47 -99 137l-4 -23c0 -29 12 -43 100 -135c2 8 3 15 3 21zM645 -182
c-92 116 -96 120 -121 120c-1 -1 -9 -2 -24 -4c81 -96 102 -116 117 -116h28zM579 -180c-93 109 -102 118 -122 118c-10 0 -17 -1 -22 -4c70 -77 107 -116 112 -116zM514 -181c-91 112 -99 119 -120 119c-9 0 -18 -1 -25 -4l111 -115h34zM448 -181l-111 117h-39l114 -117h36
zM381 -181c-23 27 -60 66 -110 116c-3 3 -8 4 -15 4c-5 0 -13 -2 -25 -5l111 -115h39zM314 -181c-24 29 -61 68 -110 116c-3 2 -10 3 -22 3c-4 0 -10 -1 -18 -3c70 -79 108 -116 118 -116h32zM246 -181c-77 91 -109 121 -126 121c-9 0 -17 -2 -24 -5
c88 -91 113 -116 118 -116h32zM183 -183c-85 101 -107 124 -128 124c-9 0 -18 -2 -25 -6c71 -79 109 -118 112 -118h41z" />
    <glyph glyph-name="m" unicode="m" horiz-adv-x="1196" 
d="M1136 -199h-292c-13 11 -46 48 -100 110c-17 -39 -28 -75 -35 -107h-172l-107 122c-17 -101 -23 -125 -33 -125c-60 0 -150 2 -270 6c-13 15 -55 64 -127 144c42 598 48 674 73 845l303 -1c102 -100 129 -138 169 -249c83 255 84 255 96 255l254 -4
c25 0 153 -123 169 -158c16 -181 28 -297 49 -493c15 -141 23 -256 23 -345zM1051 605c0 15 -5 29 -15 42c-23 23 -57 58 -102 105c0 -51 7 -58 115 -164c2 10 2 16 2 17zM1056 505c0 49 -7 57 -66 117c-18 18 -34 36 -48 54v-17c0 -43 3 -47 114 -154zM947 592
c0 -57 0 -58 117 -171c0 52 0 53 -117 171zM1071 337c0 49 0 52 -116 172c0 -51 6 -62 57 -110c23 -21 42 -42 59 -62zM962 427c0 -54 0 -54 116 -168c0 55 0 56 -116 168zM1084 184v34l-116 130c0 -46 0 -47 116 -164zM975 270c0 -39 14 -58 117 -161c0 48 0 55 -117 161z
M982 201v-12c0 -42 0 -42 116 -153c0 45 -2 48 -116 165zM987 124c0 -43 0 -43 118 -161c0 37 -1 39 -118 161zM533 504c0 30 -9 42 -114 154c8 -69 20 -83 108 -169c4 8 6 13 6 15zM993 53c0 -42 10 -54 68 -111c19 -17 35 -35 50 -54c2 48 2 49 -118 165zM517 456
c0 20 -13 37 -60 79c9 -44 28 -76 56 -96c3 10 4 16 4 17zM1117 -171c0 21 0 21 -117 152c0 -32 11 -44 117 -152zM697 203l-7 57l-10 -37c0 -8 10 -20 17 -20zM504 416l-13 15c2 -6 5 -15 8 -27c3 5 5 9 5 12zM1093 -176c-92 107 -101 114 -125 114c-1 0 -7 -1 -18 -4
l105 -110h38zM981 -45l-70 823h-270c-27 -92 -69 -227 -128 -406l-14 -9c-32 88 -75 211 -129 368c-8 31 -15 50 -30 50l-253 -1l-70 -822h247c20 269 28 347 36 355l14 -7l116 -351h137c78 259 118 363 131 363c12 0 14 -16 41 -363h242zM704 125v24c0 18 -4 22 -33 48
c-6 -11 -9 -18 -9 -21c0 -9 34 -47 42 -51zM1029 -179l-109 116h-36c69 -77 107 -116 113 -116h32zM713 60c0 26 -20 56 -59 89c-6 -17 -9 -26 -9 -27c0 -7 5 -16 14 -26c25 -21 38 -33 51 -50c2 7 3 11 3 14zM965 -178c-83 91 -108 116 -117 116c-1 0 -8 0 -32 -4
c89 -94 108 -112 113 -112h36zM721 -17c0 24 -10 36 -82 112l-10 -37l92 -96v21zM894 -178c-91 101 -104 115 -130 115c-4 0 -10 -1 -18 -3c68 -75 104 -112 107 -112h41zM727 -76l-107 114c-2 -8 -5 -21 -11 -37l107 -112c3 8 7 19 11 35zM708 -131l-106 113
c-3 -8 -7 -19 -11 -35l106 -118c2 9 6 22 11 40zM323 208l-10 44c-3 -3 -4 -8 -4 -15c0 -10 5 -20 14 -29zM357 107c-5 30 -23 61 -53 93c-3 -8 -5 -13 -5 -16c0 -18 6 -26 58 -77zM675 -180c-22 26 -56 64 -101 115l-29 2c-5 0 -12 -1 -21 -3c88 -96 106 -114 117 -114h34z
M398 -17c0 47 -28 91 -100 158l-5 -39zM602 -180l-108 117h-48c77 -99 98 -121 131 -121c1 0 9 1 25 4zM408 -56l-116 125c1 -1 2 -4 2 -8c-1 -11 -3 -26 -3 -33c0 -6 18 -27 111 -128zM289 0l-6 -50l115 -123c3 50 3 51 -109 173zM375 -178c-72 75 -110 113 -114 113h-22
c85 -98 101 -115 127 -115c3 0 6 1 9 2zM316 -179c-22 27 -57 65 -104 112l-32 3h-14l108 -115h42zM246 -182l-111 119l-40 -2c24 -25 59 -64 105 -117h46zM176 -181c-81 96 -107 121 -122 121c-11 0 -18 -2 -22 -6c69 -77 107 -115 113 -115h31z" />
    <glyph glyph-name="n" unicode="n" horiz-adv-x="946" 
d="M875 -199h-287c-47 47 -108 130 -181 249l-3 -249h-284l-120 132v860l7 5h270l197 -217c4 26 6 49 6 93c-2 64 -2 107 -2 127h136l133 -3c29 -24 72 -69 128 -136v-861zM856 614v39l-102 116v-41c0 -5 22 -30 102 -114zM856 549v35l-102 113v-40zM858 475l-2 43
c-7 8 -41 45 -102 111v-47l96 -107h8zM858 425c0 17 -36 59 -107 127v-43l107 -113v29zM857 354c0 7 -34 49 -103 125l-3 -39c0 -5 21 -28 106 -115v29zM857 255v35l-106 118v-39zM754 338c-2 -24 -3 -30 -3 -37c0 -11 20 -31 107 -118v17c0 32 -1 34 -104 138zM475 509v42
l-155 178c48 -106 66 -131 155 -220zM857 112v39c0 4 -35 41 -106 112v-38zM475 445c0 33 0 34 -27 61c-7 7 -13 15 -19 23zM857 41v39l-106 116v-47zM857 -30v39l-105 112c-1 0 -1 -11 -1 -34c0 -5 40 -48 106 -117zM857 -103v42l-105 115c-1 0 -1 -13 -1 -40
c0 -4 5 -11 106 -117zM731 -49v828h-225c-2 2 -3 2 -10 2v-371l-12 -11c-50 84 -123 211 -219 382h-244v-827h239v352l9 7c10 -1 82 -122 215 -362h247zM857 -170v33l-106 117v-32zM842 -181c-81 94 -102 115 -115 115c-11 0 -20 -1 -26 -3c28 -33 102 -117 116 -117
c2 1 10 2 25 5zM776 -181l-96 113h-30c0 -1 -4 -1 -12 -3c23 -25 58 -62 106 -110h32zM329 183l-48 85c-4 -10 -5 -17 -5 -18c0 -17 18 -40 53 -67zM717 -181c-21 26 -54 62 -100 108c-4 3 -11 5 -22 5h-25l107 -113h40zM387 51v33c0 1 -36 41 -107 118v-37
c0 -6 36 -44 107 -114zM648 -181c-69 75 -106 112 -113 112h-36l104 -112h45zM387 10c0 10 -16 30 -107 124v-46l106 -115c1 0 1 12 1 37zM387 -100v42l-108 118l2 -52c87 -92 94 -100 106 -108zM280 -19v-29l106 -118c3 29 3 30 -106 147zM372 -181
c-96 116 -97 116 -118 116c-13 0 -21 -2 -24 -7l108 -109h34zM308 -181c-87 97 -106 115 -119 115c-5 0 -12 -1 -23 -3c70 -77 103 -112 108 -112h34zM245 -181c-106 115 -106 115 -144 115l109 -115h35zM176 -181l-104 113h-47l107 -113h44z" />
    <glyph glyph-name="o" unicode="o" horiz-adv-x="1048" 
d="M999 230c0 -231 -206 -429 -445 -429c-252 0 -554 305 -554 561c0 247 185 439 423 439c272 0 576 -301 576 -571zM953 378c-11 47 -53 108 -127 183c5 -11 13 -28 23 -51c6 -38 7 -38 104 -132zM978 287c0 40 -20 63 -113 156c0 -46 0 -47 113 -156zM978 205v46
l-105 111c1 -1 2 -3 2 -7c-1 -11 -3 -26 -3 -34c0 -6 17 -24 106 -116zM973 178l-105 112c-3 -15 -6 -27 -9 -36l108 -110c2 6 4 18 6 34zM962 120l-108 113c-3 -7 -7 -16 -10 -28c23 -25 59 -62 107 -110c3 6 7 13 11 25zM941 73l-107 112c-9 -16 -13 -25 -13 -26
c0 -7 101 -105 109 -112c2 6 6 15 11 26zM917 27l-110 115c-3 -7 -9 -17 -16 -30c42 -51 79 -88 112 -111c3 5 8 14 14 26zM887 -20c-1 0 -38 39 -112 116l-17 -23l111 -114zM852 370c0 232 -189 415 -429 415c-219 0 -406 -189 -406 -410c0 -244 191 -417 430 -417
c224 0 405 187 405 412zM851 -54l-111 113l-18 -22l111 -113c5 4 11 11 18 22zM812 -87l-108 113l-23 -18l110 -114c14 8 21 14 21 19zM775 -120l-114 119l-24 -16l111 -117c5 4 15 8 27 14zM726 -145l-108 119c-7 0 -17 -4 -31 -12c71 -77 110 -115 115 -115c1 1 9 4 24 8z
M676 -164l-114 121c-7 -2 -17 -5 -30 -10l116 -120c7 3 17 6 28 9zM621 -177c-101 107 -114 121 -121 121s-18 -2 -33 -6c24 -29 61 -67 110 -116c2 -1 5 -2 10 -2c10 0 21 1 34 3zM552 -180c-107 123 -109 123 -133 123l-26 -1c105 -125 108 -125 126 -125c11 0 22 1 33 3z
M476 -174c-125 135 -125 135 -176 135c119 -128 135 -140 176 -135zM601 366c0 -95 -74 -177 -160 -177c-99 0 -167 78 -167 190c0 91 71 173 151 173c105 0 176 -76 176 -186zM510 462c-2 4 -22 29 -60 74h-15c-10 0 -19 -2 -26 -6c59 -65 65 -71 85 -71c3 0 7 1 16 3z
M459 448c-44 52 -68 78 -72 78c-6 0 -15 -5 -27 -14c45 -52 71 -78 80 -78c5 0 11 5 19 14zM582 370c0 54 -18 73 -69 73c-63 0 -106 -50 -106 -122c0 -52 34 -109 67 -109c46 0 108 82 108 158zM420 419l-79 79l-17 -15c10 -19 14 -24 79 -92c6 12 12 21 17 28zM395 369
l-83 92c-9 -17 -13 -27 -13 -31c0 -8 28 -38 88 -99c-1 1 -2 2 -2 5s0 3 10 33zM436 208c-12 11 -22 26 -31 47c-21 48 -25 53 -112 148l-5 -44c0 -12 111 -123 148 -151z" />
    <glyph glyph-name="p" unicode="p" horiz-adv-x="888" 
d="M855 381c0 -196 -149 -315 -386 -315h-55l-4 -259l-10 -6h-275l-125 135v856l12 9c83 0 145 2 361 9c182 0 271 -52 429 -251c35 -45 53 -105 53 -178zM832 385c0 45 0 45 -46 91c-13 13 -25 27 -36 41v-43zM831 339c0 23 -10 34 -83 108c-3 -7 -6 -19 -10 -34l89 -95
c3 12 4 19 4 21zM821 296l-88 95c-10 -20 -15 -31 -15 -32c53 -61 83 -91 92 -91c3 7 7 15 11 28zM797 246l-87 95c-2 -4 -7 -12 -13 -27l88 -90c2 1 5 9 12 22zM772 204l-91 95c-4 -5 -9 -13 -15 -24c55 -61 83 -91 85 -91c4 0 5 0 21 20zM738 169c-33 43 -63 74 -90 94
l-19 -20l91 -93zM701 137l-88 96c-7 -3 -16 -7 -26 -14l94 -97zM659 112c-20 25 -87 100 -91 100c-2 0 -12 -4 -29 -11c59 -65 91 -98 94 -98c5 0 13 3 26 9zM729 495c0 179 -127 288 -334 288h-371c-4 -35 -4 -55 -5 -60v-770h247v251c11 5 63 10 156 13
c217 6 307 92 307 278zM609 95l-96 101c-8 0 -19 -3 -32 -9l98 -100c7 1 17 3 30 8zM552 86l-101 104h-31c14 -20 34 -43 93 -104h39zM491 83c-81 87 -103 108 -112 108c-3 0 -10 -1 -20 -3c65 -72 103 -108 116 -108c3 0 8 1 16 3zM431 85l-99 105h-29
c70 -81 97 -108 107 -108c9 0 19 2 21 3zM393 18v34l-106 116v-38c0 -6 74 -82 106 -112zM393 -49v33l-106 117v-38zM393 -114v32l-106 117v-35zM393 -166v25l-106 113v-26zM377 -179l-106 110h-39l106 -110h39zM308 -179c-86 91 -106 112 -125 112c-5 0 -10 -2 -16 -5
l106 -107h35zM243 -179l-105 110h-33l103 -110h35zM180 -179l-107 110h-45l104 -110h48zM484 502c0 -66 -39 -111 -98 -111h-111l-8 8v207c7 7 18 10 33 10c134 0 184 -30 184 -114zM391 595c-2 0 -5 -1 -10 -4c17 -20 45 -48 83 -84c0 40 -40 88 -73 88zM447 492l-96 104
h-46l101 -104h41zM460 470h-46v-54c22 9 37 27 46 54zM393 426v43l-106 115v-45c0 -8 23 -31 106 -113zM381 408l-94 101v-41c0 -14 55 -64 71 -64c1 0 9 1 23 4zM310 410l-23 27v-27h23z" />
    <glyph glyph-name="q" unicode="q" horiz-adv-x="969" 
d="M918 -190c-15 -7 -23 -8 -25 -9h-253l-77 76c-10 -3 -27 -5 -51 -5c-227 0 -512 291 -512 522c0 276 237 406 417 406c230 0 499 -286 499 -527c0 -101 -39 -193 -116 -278zM875 415c-11 49 -48 105 -111 166c5 -12 13 -30 24 -53c3 -28 5 -31 87 -113zM899 339
c0 29 -12 43 -96 126l5 -52l88 -92c2 11 3 17 3 18zM899 285c0 8 -84 93 -92 100v-29c0 -10 30 -45 89 -104c2 18 3 29 3 33zM895 227l-92 97c-2 -8 -5 -20 -10 -36l93 -99c5 13 8 25 9 38zM881 167l-94 98c-2 -5 -5 -13 -10 -24l94 -101c3 6 6 15 10 27zM863 122l-95 99
c-3 -6 -8 -15 -13 -27l96 -97c2 3 6 12 12 25zM840 77l-97 104c-4 -7 -9 -17 -18 -29l99 -100c7 11 12 19 16 25zM810 36c-10 14 -86 92 -99 102l-21 -26l99 -101c5 6 11 15 21 25zM791 406c0 206 -179 378 -394 378c-200 0 -380 -172 -380 -376c0 -225 174 -384 390 -384
c24 0 48 2 72 6c5 -7 27 -39 65 -97c30 -2 55 -3 75 -3l163 3l-117 180c84 88 126 186 126 293zM886 -181c-75 91 -83 92 -108 92c-4 0 -7 2 -9 4c-1 -4 -3 -5 -10 -5c69 -77 86 -94 112 -94c3 0 8 1 15 3zM822 -182c-57 63 -89 94 -96 94h-29c56 -63 86 -94 91 -94h34z
M757 -181c-64 70 -89 93 -100 93h-30c73 -86 84 -96 113 -96c4 0 10 1 17 3zM687 -182l-92 95h-34c58 -74 83 -98 100 -98c12 2 19 3 26 3zM551 -105c-18 24 -43 62 -76 111c-8 -2 -23 -3 -42 -5c69 -74 105 -111 110 -111c3 0 5 2 8 5zM512 -110l-107 114h-35l107 -114h35z
M446 -104c-21 27 -55 64 -101 111c-4 3 -49 16 -58 15c112 -126 114 -126 159 -126zM562 398c0 -95 -62 -168 -146 -168c-91 0 -156 74 -156 174c0 89 70 162 154 162c85 0 148 -72 148 -168zM480 486c-51 57 -60 64 -76 64c-5 0 -11 -2 -17 -5c49 -57 56 -65 75 -65
c5 0 11 2 18 6zM430 475l-66 66l-23 -15l67 -69c1 3 4 6 11 9s11 6 11 9zM545 403c0 13 -1 26 -4 39c-20 15 -42 23 -65 23c-48 0 -97 -53 -97 -106c0 -56 31 -108 65 -108c11 0 62 32 70 45c21 33 31 69 31 107zM394 445l-69 71c-4 -6 -12 -13 -21 -22l75 -74
c6 11 11 19 15 25zM371 400l-75 76c-3 -6 -7 -15 -12 -27l76 -82c1 8 4 19 11 33zM388 268c-7 10 -14 23 -19 39c-14 48 -15 49 -91 121l-1 -45c13 -15 50 -53 111 -115z" />
    <glyph glyph-name="r" unicode="r" horiz-adv-x="903" 
d="M887 -192c-28 -5 -43 -7 -46 -7l-251 2c-134 155 -159 188 -187 246c-3 -3 -5 -83 -7 -242c-13 -4 -18 -5 -21 -6h-252l-123 147l5 849l12 4h470c154 0 360 -219 360 -377c0 -116 -69 -220 -175 -263zM787 572l-57 61l55 -62zM826 470c-5 45 -21 66 -83 117
c0 -27 9 -41 83 -117zM831 416c0 23 -6 30 -74 102l-5 -44c0 -4 25 -32 74 -85c3 14 5 23 5 27zM821 364l-73 83c-7 -12 -10 -21 -10 -27c0 -17 5 -22 71 -93c2 10 6 22 12 37zM800 308c-25 34 -50 60 -73 79l-17 -32l73 -80zM771 259c-44 51 -68 76 -72 76
c-6 0 -13 -8 -20 -23l71 -77c7 6 14 14 21 24zM737 222l-75 78l-24 -23l68 -76zM689 193l-66 73c-21 -9 -26 -12 -28 -18c9 -7 16 -15 22 -24c27 -39 33 -45 44 -45c8 0 17 5 28 14zM735 -43l-181 291c121 88 177 138 177 258c0 233 -191 288 -427 288
c-18 0 -64 -2 -283 -10l-4 -827h242c0 135 1 222 4 259c12 3 16 4 19 4l34 -3l163 -260h256zM847 -180c-23 31 -55 70 -95 115c-3 2 -7 3 -14 3h-38l98 -118h49zM772 -180c-63 79 -98 118 -107 118c-5 0 -15 -1 -22 -3c-3 0 -6 1 -9 3l98 -118h40zM708 -179
c-77 90 -104 117 -119 117c-3 0 -10 -1 -21 -3l97 -117c20 2 26 3 43 3zM363 103c-57 90 -62 97 -71 97c-2 0 -6 -1 -12 -3zM642 -181l-100 119h-41c84 -109 97 -122 125 -122c5 0 11 1 16 3zM381 12v39l-101 120v-42zM381 -70v50l-101 117v-54c0 -8 34 -46 101 -113z
M381 -167v63l-101 117v-61zM362 -180c-7 12 -92 112 -98 115h-34c22 -25 54 -63 97 -114zM304 -180c-75 92 -101 119 -115 119c-11 0 -21 -1 -31 -4l103 -115h43zM235 -180l-105 118h-39l100 -118h44zM167 -180l-102 118c-13 2 -18 3 -24 3c-3 0 -6 -2 -9 -6l99 -115h36z
M483 493c0 -54 -43 -98 -94 -98h-123v191c0 3 4 5 11 5h78c85 0 128 -33 128 -98zM463 496c0 40 -35 76 -79 76zM452 475l-97 97h-55c91 -94 94 -97 152 -97zM455 457h-49v-40c20 7 36 20 49 40zM384 427v37l-101 96v-55l98 -89c0 2 0 3 3 11zM347 412c-10 16 -15 21 -64 67
v-67h64z" />
    <glyph glyph-name="s" unicode="s" horiz-adv-x="827" 
d="M774 113c0 -224 -175 -312 -432 -312c-193 0 -209 22 -342 205c19 41 50 102 91 183c67 -35 142 -52 224 -52c4 0 20 2 49 6c-152 35 -170 44 -268 199c-49 78 -74 138 -74 179c0 160 137 280 319 280c206 0 303 -48 407 -200c-19 -43 -48 -106 -89 -191
c-49 27 -87 40 -114 40l-3 -1c155 -113 232 -225 232 -336zM732 603l-76 93c-7 -18 -15 -38 -15 -39c0 -8 7 -18 71 -96zM702 539c0 3 -25 35 -75 98c-2 -8 -7 -18 -14 -33l75 -96c9 19 14 30 14 31zM677 491l-75 92c-9 -11 -13 -22 -13 -33c0 -19 9 -30 71 -98
c3 3 9 16 17 39zM646 437l-69 87c-30 33 -61 50 -92 50c25 -33 59 -71 100 -115c14 -4 44 -15 61 -22zM551 470c-97 114 -98 114 -144 114c90 -106 100 -117 127 -117c5 0 11 1 17 3zM729 226c-3 12 -7 17 -48 64c0 -10 13 -28 48 -64zM468 480c-52 72 -85 108 -100 108
c-3 0 -10 -2 -22 -7c76 -91 86 -103 109 -103c5 0 9 1 13 2zM696 239h-6c0 -40 1 -41 63 -103c0 36 0 37 -57 103zM402 487c-33 39 -59 68 -79 87c-9 -13 -13 -20 -13 -22c0 -14 62 -67 78 -67c2 0 10 1 14 2zM757 83c0 20 -8 30 -66 94c-6 -13 -9 -21 -9 -22
c0 -19 5 -25 68 -95c5 13 7 20 7 23zM325 505l-14 17l-2 -1l14 -17zM743 39l-69 81c-1 -5 -4 -14 -8 -25l72 -81c2 5 3 14 5 25zM670 213c0 157 -70 204 -283 257c-66 16 -99 41 -99 74c0 41 30 62 89 62c72 0 137 -15 194 -45l70 149c-85 49 -179 74 -283 74
c-168 0 -315 -89 -315 -254c0 -91 34 -157 101 -200c27 -17 90 -39 189 -67c67 -19 101 -46 101 -79c0 -43 -37 -64 -110 -64c-86 0 -162 17 -228 50c-60 -114 -72 -143 -72 -160c89 -40 190 -60 303 -60c209 0 343 102 343 263zM728 -6l-75 85c-7 -10 -12 -20 -16 -30
l77 -84c7 10 11 20 14 29zM701 -50l-79 87l-19 -22l81 -91c5 6 11 15 17 26zM415 190c0 34 -31 51 -94 51l76 -83c12 3 18 13 18 32zM671 -90c-31 38 -60 69 -87 93c-5 -4 -13 -11 -22 -20l86 -93c5 5 12 11 23 20zM367 163c-70 84 -80 96 -125 96c67 -80 82 -98 111 -98
c5 0 9 1 14 2zM629 -121c-53 62 -84 97 -88 97c-3 -2 -8 -6 -21 -13c57 -65 86 -98 88 -98c5 0 12 5 21 14zM589 -142c-59 65 -91 97 -94 97c-1 -1 -10 -4 -27 -8l87 -101c7 3 19 7 34 12zM535 -159c-78 87 -92 101 -98 101c-11 0 -18 -2 -22 -7c21 -21 49 -55 86 -102h16
c4 0 10 3 18 8zM486 -172c-67 78 -96 108 -104 108c-6 0 -12 -1 -25 -3c28 -35 60 -72 95 -110c10 2 21 4 34 5zM429 -180c-87 109 -94 115 -118 115c-9 0 -17 -2 -22 -5c22 -24 55 -61 98 -110h42zM363 -180c-93 117 -99 117 -116 117h-30l101 -117h45zM292 -177
c-95 114 -108 127 -154 127c72 -85 112 -127 120 -127h34zM217 -168c-104 122 -132 148 -175 148c112 -143 113 -144 175 -148z" />
    <glyph glyph-name="t" unicode="t" horiz-adv-x="876" 
d="M833 434c-13 -4 -40 -6 -81 -6c-9 0 -40 0 -124 2l-7 -3l-4 -619c-2 -3 -95 -5 -279 -7c-21 20 -63 67 -126 141v487h-103c-25 25 -61 63 -107 116l-2 35v219h712l121 -144v-221zM816 606v45l-100 118v-51zM816 528v49l-101 112c1 -1 2 -4 2 -8c0 -1 -2 -22 -4 -33
c0 -6 16 -26 103 -120zM816 489c0 11 -34 52 -103 123v-42l103 -113v32zM796 449l-95 100h-28c-8 -2 -11 -3 -14 -3l90 -97h47zM724 446c-70 78 -95 103 -112 103c-3 0 -10 -1 -20 -3c62 -67 94 -100 97 -100h35zM657 446c-76 84 -94 103 -110 103c-6 0 -13 -1 -22 -3
c77 -90 91 -102 117 -102c5 0 10 1 15 2zM602 362v64l-104 121v-77c20 -17 26 -23 104 -108zM602 277v54l-107 115v-51zM602 206v42l-107 116c-1 0 -1 -12 -1 -37c0 -7 24 -33 108 -121zM602 135v42l-107 113v-37zM693 567v214c-447 0 -672 1 -675 4v-216h199l16 -16v-598
h243v-3c-1 0 -2 191 -2 340c0 160 2 264 7 275h212zM212 492v57l-51 -1zM602 62v41l-107 118v-40zM212 445v18c-61 68 -78 86 -93 86c-7 0 -15 -1 -23 -3c83 -101 84 -101 116 -101zM602 28c0 2 -36 42 -107 120v-36l107 -119v35zM158 446c-85 100 -86 101 -117 101h-16
c62 -68 95 -101 100 -101h33zM600 -77v41l-105 115v-41zM600 -164v55l-107 119l1 -61c23 -25 59 -63 106 -113zM587 -180c-82 96 -103 117 -116 117l-35 -2l104 -115h47zM513 -180c-63 77 -98 116 -106 116h-39l107 -116h38zM448 -180c-80 94 -105 119 -119 119
c-9 0 -17 -2 -24 -5l107 -114h36zM382 -180l-106 115h-39l106 -115h39z" />
    <glyph glyph-name="u" unicode="u" horiz-adv-x="945" 
d="M877 646l6 -312c0 -378 -118 -533 -418 -533c-150 0 -229 44 -349 188c-78 95 -116 170 -116 226l4 581l10 5h262c81 -85 108 -117 135 -157c-4 -313 -5 -359 -3 -456l4 -1c53 0 80 102 80 305c0 75 -2 122 -12 304l8 4l249 -1c41 -32 87 -83 140 -153zM860 635
c0 7 -66 84 -106 126v-46l105 -121c1 0 1 13 1 41zM857 520v40l-103 122v-42zM857 444v42l-105 125v-44zM857 369v44l-105 122v-45zM856 295v42l-104 122v-41zM856 219v45l-104 123v-48zM856 186c0 2 -5 9 -103 124l-3 -34c0 -10 75 -95 103 -121c2 18 3 28 3 31zM393 588
v50l-107 128v-49c0 -7 48 -64 107 -129zM849 121l-96 118l-7 -37l99 -116zM393 550c0 1 -36 44 -107 129v-33l107 -125v29zM840 62l-99 113l-8 -32l95 -111c2 6 6 16 12 30zM393 483c0 1 -36 45 -107 131l-3 -41c0 -5 34 -46 107 -129c2 23 3 36 3 39zM818 14l-93 108
c-2 -1 -8 -11 -17 -30l95 -109c4 6 9 16 15 31zM390 371v39l-107 125v-41zM789 -32l-95 109c-5 -10 -10 -19 -15 -26c20 -25 52 -59 96 -104zM735 780c-7 3 -44 5 -110 5h-124l-6 -537c0 -35 -56 -87 -95 -87c-78 0 -134 35 -134 84v536h-236l-6 4c-3 -7 -4 -134 -7 -458
c0 -213 65 -379 349 -379c205 0 361 119 363 284zM390 290v47l-107 125v-47zM755 -68l-93 107l-17 -23c1 -2 82 -97 95 -103c5 4 10 10 15 19zM391 255c0 6 -40 54 -108 128v-48l106 -121c-1 1 -2 4 -2 8c1 4 4 32 4 33zM722 -101c-61 71 -93 107 -94 107
c-2 -2 -10 -7 -25 -17l95 -105c5 3 13 8 24 15zM387 182l-104 121c0 -78 31 -121 104 -121zM679 -127c-71 82 -91 105 -98 105c-2 -2 -10 -6 -24 -13l94 -107c6 3 15 8 28 15zM632 -151c-80 93 -92 106 -96 106c-9 0 -19 -4 -29 -13l92 -103c13 5 24 8 33 10zM578 -165
l-94 107c-8 -1 -18 -5 -32 -9l95 -107c7 3 17 6 31 9zM520 -175c-61 71 -93 107 -97 107c-2 0 -2 0 -26 -4c13 -18 85 -106 94 -106c6 0 16 1 29 3zM463 -179c-78 88 -96 107 -106 107h-28l92 -107h42zM392 -175c-13 11 -27 27 -43 50c-36 49 -54 62 -97 62
c95 -110 99 -112 140 -112z" />
    <glyph glyph-name="v" unicode="v" horiz-adv-x="1010" 
d="M963 643l-238 -841h-390c-89 92 -101 104 -117 134c-15 30 -63 221 -218 864c19 1 119 3 147 3c71 0 108 -3 133 -6c117 -119 143 -160 185 -293c39 120 70 219 92 297h268c31 -35 77 -87 138 -158zM944 642l-113 131l-10 -40c23 -31 60 -74 111 -129c2 10 6 22 12 38z
M927 579c0 7 -38 49 -115 126l-9 -39l112 -125c8 25 12 37 12 38zM908 517l-113 129l-11 -42l110 -126c3 7 8 19 14 39zM889 450l-111 133c-2 -9 -6 -23 -11 -40c24 -29 62 -70 114 -123zM872 396l-111 127l-12 -45l112 -125zM854 330l-111 124c-1 -7 -3 -19 -7 -33
l109 -123c5 12 8 23 9 32zM839 275c-33 37 -69 79 -109 126c-3 -8 -7 -19 -11 -35l111 -124zM824 217l-110 126l-12 -40l109 -121zM435 540c0 59 -18 83 -145 221c5 -17 12 -42 19 -77zM805 157l-108 126c-7 -22 -11 -34 -11 -36c9 -9 46 -49 110 -120c2 7 5 17 9 30z
M452 462c0 29 -23 56 -133 181c0 -59 1 -61 129 -202c3 11 4 18 4 21zM790 98c0 6 -37 49 -110 128c-3 -7 -6 -19 -10 -34l110 -122c7 13 10 23 10 28zM441 419l-91 101c0 -40 10 -53 82 -138zM774 44l-109 126l-11 -41l109 -118c2 7 6 18 11 33zM812 781h-249
c-49 -177 -99 -356 -151 -536l-14 4c-30 119 -75 297 -136 534h-237c33 -160 50 -227 203 -829h358zM426 352c0 10 0 10 -49 63c17 -64 21 -73 41 -86c5 11 8 19 8 23zM755 -15l-107 122c-2 -7 -5 -18 -9 -33l107 -121c3 8 6 19 9 32zM412 300v8c0 3 -3 6 -9 9
c1 -5 2 -11 4 -20c2 0 4 1 5 3zM740 -70l-106 124l-11 -42l106 -121c2 9 6 22 11 39zM721 -132c-22 28 -58 68 -107 120l-11 -43l107 -120zM682 -182c-17 24 -96 117 -102 117c-3 0 -8 -2 -11 -3l-18 4c-3 0 -8 -2 -13 -5c4 -6 70 -87 101 -110c3 -2 8 -3 15 -3h28z
M612 -180l-100 112l-34 4c-3 0 -8 -2 -14 -5c18 -23 100 -113 106 -113zM539 -181c-80 97 -97 116 -134 116c-4 0 -8 -2 -12 -6c68 -73 104 -110 108 -110h38zM467 -181c-75 92 -99 117 -112 117c-20 0 -31 -2 -32 -6l100 -111h44zM397 -181c-84 105 -100 119 -129 119
c-6 0 -14 -2 -24 -5l96 -114h57z" />
    <glyph glyph-name="w" unicode="w" horiz-adv-x="1355" 
d="M1303 632c0 -21 -186 -734 -214 -831h-271c-65 71 -99 108 -102 113c-12 19 -29 67 -50 143c-20 -47 -27 -69 -83 -256h-276c-116 136 -125 148 -131 180c-63 313 -122 583 -176 812l4 8h271l130 -142c6 14 21 61 46 142h273l134 -151l44 149h269l132 -137v-30zM1288 654
l-108 120c-5 -14 -8 -26 -8 -35c0 -14 77 -96 105 -118c3 7 6 18 11 33zM1271 588c0 4 -16 24 -107 124l-11 -41l107 -120c8 22 10 34 11 37zM1255 527l-104 121c-7 -12 -11 -22 -11 -29c0 -11 70 -88 106 -126c2 7 6 18 9 34zM1240 470l-104 118c-2 -10 -6 -22 -12 -37
l106 -119zM1225 407l-106 120l-10 -36l106 -122zM1211 346l-107 121c-1 -7 -3 -19 -7 -33l105 -122zM1197 289l-107 121l-8 -38l104 -119c3 8 7 19 11 36zM852 625l-111 130c8 -83 20 -96 100 -176zM1182 230l-108 117c-1 -8 -3 -20 -7 -34l106 -116zM835 544
c0 13 -7 25 -59 74c21 -80 27 -92 51 -103c5 13 8 23 8 29zM1166 170l-105 121c-5 -17 -7 -26 -7 -29c0 -12 82 -107 106 -125c1 7 3 18 6 33zM818 479c0 16 -5 26 -14 30l11 -46c2 9 3 14 3 16zM1151 112l-104 119l-10 -37l107 -119zM1140 48l-108 121l-8 -35l104 -121
c2 9 6 21 12 35zM1121 -7l-105 118c-1 -7 -4 -18 -7 -31l106 -121c2 7 4 19 6 34zM1109 -66l-106 120l-7 -37l104 -119zM400 636l-105 124c8 -76 9 -77 94 -164c3 9 7 21 11 40zM1158 781h-247c-22 -98 -52 -223 -91 -376h-6c-23 66 -28 86 -103 376h-247
c-25 -87 -63 -209 -112 -366l-9 5l-76 362h-242c94 -456 129 -622 179 -829h249l124 440l11 8c10 -1 12 -8 126 -448h243zM1095 -126l-108 120l-8 -45c14 -27 30 -45 102 -120c3 10 7 25 14 45zM381 556c0 43 -61 87 -62 87c0 -33 17 -66 53 -107c6 11 9 17 9 20zM591 342
l-2 6h-2l1 -6h3zM614 245c-15 60 -19 69 -35 77c-7 -9 -10 -16 -10 -21c0 -12 4 -16 45 -56zM1060 -179c-23 30 -93 113 -109 113l-30 -1l96 -112h43zM368 514l-30 34l16 -76zM992 -179c-22 24 -53 61 -95 110l-24 2c-6 0 -12 -1 -18 -4l95 -108h42zM643 135
c-8 64 -17 73 -79 135c-2 -7 -6 -18 -11 -33zM925 -179c-92 113 -93 113 -117 113c-3 0 -9 -2 -16 -5l94 -108h39zM652 96l-103 118l-13 -40l106 -114zM862 -179l-96 111h-36c11 -17 42 -54 94 -111h38zM634 37l-103 116c-7 -22 -11 -34 -11 -37c0 -4 85 -96 105 -114z
M617 -23l-103 115c-1 -7 -4 -18 -8 -33l99 -117c2 9 6 21 12 35zM599 -80l-101 117l-9 -38l101 -113c2 7 6 18 9 34zM584 -137l-101 116l-10 -39l97 -112c4 7 8 20 14 35zM549 -179c-76 92 -97 115 -109 115c-8 0 -17 -2 -26 -7l95 -108h40zM483 -179l-101 112h-32l93 -112
h40zM422 -180c-78 89 -101 113 -106 113h-31c7 -14 8 -15 68 -85c17 -21 34 -31 49 -31c5 0 11 1 20 3zM354 -179c-19 27 -51 63 -95 110c-3 3 -11 5 -22 5c-5 0 -11 -2 -17 -5l94 -110h40z" />
    <glyph glyph-name="x" unicode="x" horiz-adv-x="1073" 
d="M1031 -192c-7 -5 -10 -6 -12 -7h-302c-62 65 -114 123 -156 174l-123 -171h-321c-88 96 -103 115 -117 143l292 423l-289 424l3 7h326l144 -158c12 15 19 24 111 157h315l120 -143c-28 -45 -120 -181 -276 -409zM1004 657l-104 119c-4 -7 -10 -17 -17 -30l103 -113
c4 5 10 13 18 24zM975 615l-106 115c-3 -6 -8 -15 -15 -27l104 -112zM944 572l-103 120c-3 -6 -9 -15 -16 -26l106 -115c5 6 9 13 13 21zM917 531l-105 117c-2 -5 -7 -13 -15 -24l105 -115c5 8 10 15 15 22zM888 493l-103 113c-4 -6 -10 -15 -17 -28l104 -114zM859 448
l-103 114c-5 -9 -10 -16 -15 -22c71 -85 85 -98 106 -114zM829 406c0 7 -70 85 -102 115c-4 -5 -9 -13 -15 -23c22 -27 57 -65 106 -114c7 11 11 19 11 22zM802 368l-102 113l-15 -29l101 -113c5 6 10 16 16 29zM464 629l-73 82l65 -97c3 7 6 12 8 15zM771 316
c0 13 -63 83 -102 118c-3 -7 -6 -14 -11 -22l102 -112c7 5 11 11 11 16zM746 282l-102 113c-4 -5 -9 -14 -14 -25l103 -108zM877 781h-283c-30 -43 -74 -107 -133 -193h-13l-130 195l-285 -2c210 -302 233 -335 277 -412l-277 -414h290l132 194h6l137 -195h271l-268 410z
M990 -177c-80 94 -103 114 -122 114c-3 0 -12 -2 -26 -7l94 -107h54zM912 -180l-95 113c-22 0 -33 -1 -46 -3l98 -110h43zM842 -180l-102 113h-39c22 -25 55 -63 98 -113h43zM772 -180l-103 113h-45l100 -113h48zM549 -9l-89 129l-26 -39l101 -110c5 9 9 15 14 20zM521 -45
l-99 108c-1 -1 -8 -11 -19 -32l98 -109c5 7 12 18 20 33zM487 -93l-97 109c-5 -6 -11 -16 -18 -29l97 -112c3 8 10 18 18 32zM455 -141l-99 108c-1 -1 -7 -10 -18 -28l99 -109c6 9 12 18 18 29zM416 -181l-101 114h-29c-3 0 -10 -1 -22 -3c95 -113 96 -113 152 -111z
M335 -181l-103 114h-45c38 -38 47 -48 76 -90c20 -24 24 -24 72 -24zM262 -179c-17 17 -33 34 -49 53c-41 53 -49 60 -98 60c-3 -1 -5 -1 -6 -2c67 -75 102 -112 105 -112zM180 -177c-87 102 -98 114 -127 114c-5 0 -13 -1 -24 -3c21 -25 53 -62 96 -111c6 0 18 -1 35 -3
c7 0 14 1 20 3z" />
    <glyph glyph-name="y" unicode="y" horiz-adv-x="1036" 
d="M997 657c-99 -187 -198 -378 -297 -575c0 -23 -2 -116 -5 -280h-273l-121 142v253c-43 119 -88 202 -301 589l4 15h287c1 -3 3 -5 6 -5c2 0 3 0 4 1l174 -192c21 44 56 109 103 194l284 -1zM976 651l-109 124l-16 -37l105 -124c3 4 9 16 20 37zM947 596l-108 126
c-4 -6 -8 -17 -14 -30l108 -125zM922 548l-108 125c-9 -16 -14 -26 -14 -31c0 -9 35 -51 106 -126zM894 495l-105 126l-14 -26l108 -122c3 5 6 13 11 22zM871 453l-107 123c-3 -5 -8 -14 -14 -25l108 -124c2 4 6 13 13 26zM846 407c0 5 -78 91 -109 122l-12 -29
c0 -3 36 -44 109 -123c8 18 12 28 12 30zM821 357c-23 29 -58 70 -106 123c-3 -5 -7 -14 -12 -26l101 -123c10 7 16 16 17 26zM796 310c0 4 -62 76 -105 124l-15 -29l106 -123c9 16 14 25 14 28zM465 587c-41 50 -87 102 -138 156c39 -81 81 -141 126 -181zM771 264
l-107 122c-3 -6 -7 -14 -11 -27l106 -120c3 5 7 14 12 25zM440 541l-18 21c5 -9 11 -18 15 -28c2 2 3 4 3 7zM747 218l-105 123l-12 -20c0 -7 35 -49 106 -126c3 5 7 12 11 23zM725 178l-104 120c-3 -7 -8 -17 -15 -30l103 -121zM700 126l-104 121l-17 -32l105 -118z
M846 779h-260c-99 -199 -142 -277 -153 -279l-148 282h-261c224 -406 258 -472 297 -578v-253h235v261c36 102 68 161 290 567zM680 1v69l-103 120v-66zM684 -56c0 29 -12 43 -107 150v-49l103 -125c2 15 3 23 4 24zM678 -171v63l-101 119c-3 -9 -4 -17 -4 -23
c0 -37 11 -54 105 -159zM659 -179l-99 110h-35l91 -110h43zM591 -177l-92 108h-43l89 -108h46zM524 -179l-94 110h-36l90 -110h40zM460 -179l-93 110h-35l91 -110h37z" />
    <glyph glyph-name="z" unicode="z" horiz-adv-x="955" 
d="M900 20c0 -115 -2 -188 -7 -219h-770l-123 136l263 495c-13 3 -28 4 -46 5c-50 -2 -79 -3 -94 -3c-9 0 -48 43 -119 129c0 174 1 203 7 237h755l124 -138c-37 -89 -236 -459 -259 -482c9 -1 58 -3 146 -5c82 -91 123 -142 123 -155zM869 659l-102 118
c-4 -9 -10 -23 -19 -41l103 -115c9 16 15 29 18 38zM840 603l-104 117l-13 -25c22 -27 57 -67 104 -119c3 5 7 14 13 27zM816 557l-104 118l-13 -25l103 -118c3 5 8 14 14 25zM793 514l-104 115c-3 -7 -8 -17 -15 -30l103 -116zM766 461c0 7 -69 86 -101 118
c-6 -6 -11 -15 -16 -28l103 -114zM740 418l-101 117l-16 -29c61 -74 81 -95 105 -113zM714 370l-101 118c-4 -6 -8 -17 -15 -32l102 -114zM688 325l-101 114l-13 -28l101 -114c2 7 6 16 13 28zM663 280l-102 113c-7 -18 -11 -26 -12 -29c0 -7 82 -97 102 -112
c3 6 7 15 12 28zM880 -18v44l-104 120v-45zM325 557h-16c0 -7 1 -8 11 -18c2 3 3 10 5 18zM638 233l-102 112l-15 -29l103 -112c4 6 8 16 14 29zM880 -92v44l-104 116v-51zM308 523c0 14 -30 36 -59 36c1 -9 37 -59 43 -59s16 17 16 23zM613 182l-102 116
c-9 -16 -14 -25 -14 -27c0 -6 63 -80 72 -89c4 -3 10 -5 19 -5c11 0 19 2 25 5zM758 -46v205h-328l-7 10l325 613h-723v-206h317l12 -10c-243 -430 -278 -491 -326 -616zM883 -153c0 34 -13 48 -106 147v-35c0 -10 26 -43 102 -131c3 9 4 16 4 19zM284 478
c0 1 -52 80 -79 80l-28 -5c53 -66 82 -99 89 -99c8 0 18 16 18 24zM553 176l-66 75c-9 -17 -13 -25 -13 -26c0 -23 37 -49 79 -49zM238 455c-69 87 -84 104 -103 104c-13 0 -22 -1 -29 -3c20 -22 49 -56 88 -101h44zM860 -180c-41 51 -102 117 -108 117c-19 0 -33 -2 -40 -6
l96 -111h52zM485 179l-21 26l-13 -26h34zM169 454c-19 23 -49 57 -88 102l-49 1l88 -103h49zM783 -180c-13 19 -87 107 -99 111h-35l96 -111h38zM719 -180c-12 18 -81 102 -95 111c-3 2 -10 3 -19 3h-24l96 -114h42zM654 -180c-98 117 -98 117 -132 117l-8 -6l98 -111h42z
M587 -180c-83 102 -99 117 -135 117c-2 0 -5 -2 -8 -6l103 -111h40zM520 -180c-33 37 -67 74 -99 112c-20 3 -31 4 -33 5h3c0 -1 -4 -2 -12 -4c68 -79 68 -80 90 -111zM453 -180c-21 26 -53 63 -97 110c-3 3 -9 4 -16 4h-28l98 -114h43zM387 -183l-103 116h-39
c22 -26 55 -65 101 -116h41zM319 -180l-101 111h-36l96 -111h41zM251 -180l-101 113h-37c11 -13 43 -51 96 -113h42zM185 -179l-106 112h-51l103 -116h44c4 0 7 1 10 4z" />
  </font>
</defs>
</svg>
